<?xml version="1.0" encoding="UTF-8"?>
<svg enable-background="new 0 0 250 28" version="1.1" viewBox="0 0 250 28" xml:space="preserve" xmlns="http://www.w3.org/2000/svg">
<style type="text/css">
	.st0{fill:none;}
	.st1{fill:#000307;}
</style>
<title>Group</title>
<desc>Created with Sketch.</desc>
	<rect class="st0" x="-27" y="-22" width="304" height="72"/>
		<path class="st1" d="m122.2 1.5c-4.1 0-6.9 1-9.4 3.2-2.5 2.3-4 5.8-4 9.4s1.5 7 4 9.3c2.4 2.2 5.3 3.2 9.2 3.2s6.8-1 9.1-3.2c2.5-2.3 3.9-5.8 4.1-9.4 0-3.6-1.5-7-4-9.3-2.3-2.1-5.3-3.2-9-3.2zm-0.3 21.5c-5.2 0-8.8-3.6-8.8-8.9s3.6-8.9 8.7-8.9c5.4 0 9 3.5 8.9 9 0 5.2-3.5 8.8-8.8 8.8z"/>
		<polygon class="st1" points="14.6 15.7 6.2 2 1 2 1 26 4.6 26 4.6 6.9 14.3 23.3 23.8 6.9 23.8 26 28 26 28 2 22.3 2"/>
		<path class="st1" d="m57.3 23.5l-1.4-2.4-0.1-0.1-3.4-5.7c3.6-0.7 5.3-2.8 5.3-6.3 0-2.7-1.1-5-2.9-5.9-1.5-0.8-3.1-1.1-7.6-1.1h-10.8v24h4.1v-10.2h7.4l4.9 8 0.1 0.1 1.3 2.1h4.7l-1.4-2.2c-0.1-0.1-0.1-0.2-0.2-0.3zm-16.7-11.3v-6.7h8.4c2.2 0 3 0.1 3.9 0.7 0.8 0.5 1.3 1.5 1.3 2.7s-0.5 2.2-1.3 2.7c-0.9 0.5-1.9 0.6-3.9 0.6h-8.4z"/>
		<path class="st1" d="m99.7 3.2c-1.4-0.9-3-1.2-6.3-1.2h-11.8v24h4.1v-10.2h7.6c3.4 0 4.8-0.3 6.3-1.2 1.8-1.1 2.8-3.2 2.8-5.7 0.1-2.5-0.9-4.6-2.7-5.7zm-6.1 9.1h-7.8v-6.8h7.8c2.3 0 3.3 0.2 4.1 0.7 0.7 0.5 1.1 1.4 1.1 2.7 0 2.5-1.3 3.4-5.2 3.4z"/>
		<path class="st1" d="m163.3 23.6l-1.5-2.6-3.4-5.7c3.6-0.7 5.3-2.8 5.3-6.3 0-2.7-1.1-5-2.9-5.9-1.5-0.8-3.1-1.1-7.6-1.1h-10.8v24h4.1v-10.1h7.4l4.9 8 0.1 0.1 1.3 2h4.7l-1.4-2.1c-0.1-0.1-0.1-0.2-0.2-0.3zm-16.8-11.3v-6.7h8.4c2.2 0 3 0.1 3.9 0.7 0.8 0.5 1.3 1.5 1.3 2.7s-0.5 2.2-1.3 2.7-1.8 0.6-3.9 0.6h-8.4z"/>
		<polygon class="st1" points="170 2 170 5.5 179.2 5.5 179.2 26 183.3 26 183.3 5.5 192.4 5.5 192.4 2 190.3 2"/>
		<polygon class="st1" points="204 22.5 204 15.5 214.5 15.5 214.5 12 204 12 204 5.5 219.2 5.5 219.2 2 199.8 2 199.8 26 220.2 26 220.2 22.5 218.1 22.5"/>
		<path class="st1" d="m248.6 23.8c-0.1-0.1-0.1-0.2-0.2-0.3l-1.4-2.4-0.1-0.1-3.4-5.7c3.6-0.7 5.3-2.8 5.3-6.3 0-2.7-1.1-5-2.9-5.9-1.5-0.8-3.1-1.1-7.6-1.1h-10.8v24h4.1v-10.2h7.4l4.9 8 0.1 0.1 1.3 2.1h4.7l-1.4-2.2zm-16.9-11.6v-6.7h8.4c2.2 0 3 0.1 3.9 0.7 0.8 0.5 1.3 1.5 1.3 2.7s-0.5 2.2-1.3 2.7c-0.9 0.5-1.8 0.6-3.9 0.6h-8.4z"/>
</svg>
