<?xml version="1.0" encoding="UTF-8" standalone="no"?>
<!-- Generator: Adobe Illustrator 16.0.0, SVG Export Plug-In . SVG Version: 6.00 Build 0)  -->

<svg
   xmlns:dc="http://purl.org/dc/elements/1.1/"
   xmlns:cc="http://creativecommons.org/ns#"
   xmlns:rdf="http://www.w3.org/1999/02/22-rdf-syntax-ns#"
   xmlns:svg="http://www.w3.org/2000/svg"
   xmlns="http://www.w3.org/2000/svg"
   xmlns:sodipodi="http://sodipodi.sourceforge.net/DTD/sodipodi-0.dtd"
   xmlns:inkscape="http://www.inkscape.org/namespaces/inkscape"
   version="1.1"
   id="Capa_1"
   x="0px"
   y="0px"
   width="115.244"
   height="30.999889"
   viewBox="0 0 115.244 30.999889"
   enable-background="new 0 0 540 194"
   xml:space="preserve"
   inkscape:version="0.91 r13725"
   sodipodi:docname="svd-siglas.svg"><metadata
     id="metadata21"><rdf:RDF><cc:Work
         rdf:about=""><dc:format>image/svg+xml</dc:format><dc:type
           rdf:resource="http://purl.org/dc/dcmitype/StillImage" /><dc:title></dc:title></cc:Work></rdf:RDF></metadata><defs
     id="defs19" /><sodipodi:namedview
     pagecolor="#ffffff"
     bordercolor="#666666"
     borderopacity="1"
     objecttolerance="10"
     gridtolerance="10"
     guidetolerance="10"
     inkscape:pageopacity="0"
     inkscape:pageshadow="2"
     inkscape:window-width="1855"
     inkscape:window-height="1056"
     id="namedview17"
     showgrid="false"
     fit-margin-top="0"
     fit-margin-left="0"
     fit-margin-right="0"
     fit-margin-bottom="0"
     inkscape:zoom="0.54444444"
     inkscape:cx="-267.51217"
     inkscape:cy="13.41994"
     inkscape:window-x="65"
     inkscape:window-y="24"
     inkscape:window-maximized="1"
     inkscape:current-layer="Capa_1" /><line
     stroke-miterlimit="10"
     x1="79.318047"
     y1="0"
     x2="79.318047"
     y2="30.967278"
     id="line3"
     style="fill:none;stroke:#1e120d;stroke-width:0.23803219;stroke-miterlimit:10" /><g
     id="g5"
     transform="matrix(0.23803219,0,0,0.23803219,-6.8729415,-7.0940696)"><path
       d="m 77.775,30.021 c 9.789,0 18.265,2.156 25.416,6.456 7.152,4.308 12.719,10.067 16.717,17.289 L 102.127,67.231 C 95.553,57.618 87.439,52.805 77.775,52.805 c -4.51,0 -8.279,1.051 -11.305,3.135 -3.033,2.091 -4.542,5.104 -4.542,9.019 0,3.292 1.121,5.919 3.381,7.882 2.248,1.96 6.083,4.15 11.497,6.55 l 14.497,6.266 c 10.694,4.688 18.618,9.844 23.775,15.48 5.151,5.631 7.729,12.687 7.729,21.17 0,11.393 -4.187,20.507 -12.567,27.342 -8.38,6.838 -19.07,10.252 -32.078,10.252 -10.823,0 -20.522,-2.489 -29.091,-7.497 -8.565,-4.997 -15.296,-11.733 -20.197,-20.223 l 17.979,-13.289 c 8.891,12.154 19.324,18.224 31.309,18.224 5.667,0 10.11,-1.232 13.332,-3.696 3.22,-2.47 4.833,-5.86 4.833,-10.162 0,-2.526 -0.741,-4.782 -2.221,-6.741 -1.481,-1.96 -3.158,-3.447 -5.029,-4.461 -1.861,-1.01 -4.856,-2.466 -8.976,-4.373 L 66.375,101.61 C 56.44,97.181 48.81,92.117 43.472,86.424 38.122,80.724 35.45,73.763 35.45,65.528 c 0,-10.629 3.987,-19.204 11.979,-25.726 7.987,-6.523 18.105,-9.781 30.346,-9.781 z"
       id="path7"
       inkscape:connector-curvature="0" /></g><g
     id="g9"
     transform="matrix(0.23803219,0,0,0.23803219,-6.8729415,-7.0940696)"><path
       d="m 296.925,30.021 29.375,0 -56.82,129.879 -8.7,0 -57.014,-129.879 29.574,0 31.889,77.315 31.696,-77.315 z"
       id="path11"
       inkscape:connector-curvature="0" /></g><path
     d="m 98.682429,0.05189443 c 4.907511,0 8.894321,1.40748497 11.961841,4.22007297 3.06561,2.814493 4.59973,6.5344596 4.59973,11.1599006 0,4.564982 -1.54126,8.300659 -4.62401,11.207746 -3.08085,2.905659 -7.06028,4.360274 -11.937561,4.360274 l -8.14379,0 0,-30.94799357 8.14379,0 z m -0.0455,5.72157997 -1.88712,0 0,19.5041196 1.88712,0 c 3.066571,0 5.536151,-0.895953 7.407561,-2.695239 1.86927,-1.797143 2.80521,-4.180083 2.80521,-7.150249 0,-3.000871 -0.92785,-5.360485 -2.7826,-7.0795526 -1.85641,-1.719545 -4.3329,-2.579079 -7.430171,-2.579079 z"
     id="path13"
     inkscape:connector-curvature="0" /><line
     stroke-miterlimit="10"
     x1="32.876759"
     y1="0"
     x2="32.876759"
     y2="30.967278"
     id="line15"
     style="fill:none;stroke:#1e120d;stroke-width:0.23803219;stroke-miterlimit:10" /></svg>