<svg width="265" height="108" viewBox="0 0 265 108" fill="none" xmlns="http://www.w3.org/2000/svg">
<path d="M40.9278 17.3074L41.4661 15.5858L39.6852 15.6415C39.5348 15.6415 38.4412 15.6105 37.3803 14.8419C37.4594 14.8496 37.5384 14.8604 37.6191 14.8604C38.7112 14.8604 39.7674 14.2034 40.191 13.2642L40.9573 11.5673C39.9971 11.5797 39.1191 11.4588 39.1191 11.4588C39.1113 11.4572 38.4195 11.3689 37.6191 10.5522C37.0451 9.96641 36.3348 9.65638 35.5653 9.65638C35.2288 9.65638 34.9278 9.71682 34.6688 9.79899C34.7091 9.66109 34.7478 9.52156 34.7697 9.37742C35.0146 7.78896 33.9909 6.57705 33.9909 6.57868L32.6523 4.92202L31.8224 6.86843C31.8193 6.87465 31.6099 7.33033 31.2345 7.55343C31.1212 6.98157 30.8436 6.33846 30.2495 5.72319C29.1295 4.56397 27.7661 4.39194 27.0525 4.39194C26.7221 4.39194 26.4864 4.42761 26.4289 4.43689L24.8127 4.75466C24.9057 4.39357 25.1042 3.76586 25.4672 3.20021L26.3592 1.81169L24.1146 2.0674L23.3995 0.550152L22.0159 1.26306L20.7362 0L19.4595 1.26306L18.0712 0.550152L17.3576 2.0674L15.1147 1.81169L16.0081 3.20021C16.3711 3.76586 16.5697 4.39194 16.6612 4.75304L15.1192 4.44932L15.0666 4.44005C14.989 4.42761 14.7548 4.39194 14.4228 4.39194C13.7093 4.39194 12.3458 4.56551 11.2289 5.72319C10.6333 6.33694 10.3556 6.98157 10.2409 7.55343C9.86862 7.33338 9.66069 6.88393 9.66069 6.88393L8.82928 4.9266L7.46896 6.59418C7.30291 6.80953 6.48241 7.94868 6.70573 9.38058C6.72905 9.52318 6.76625 9.66263 6.8066 9.80061C6.54911 9.71844 6.24814 9.658 5.91159 9.658C5.14218 9.658 4.43177 9.96795 3.85628 10.5538C3.05889 11.3674 2.37017 11.4588 2.37645 11.4588C2.37645 11.4588 1.64891 11.5889 0.522774 11.5687L1.28438 13.2658C1.70791 14.2065 2.76572 14.8621 3.85628 14.8621C3.93849 14.8621 4.01756 14.8511 4.09825 14.8434C3.04034 15.6121 1.94674 15.6431 1.81486 15.6446L0 15.5858L0.549129 17.3059C0.825264 18.1924 1.74815 19.6616 3.51658 19.8196C3.32418 20.6255 2.89761 21.5274 1.96073 21.9164L0.609648 22.4727L1.34642 23.7544C1.76214 24.4456 2.73784 25.2545 4.12765 25.2545C4.42862 25.253 4.71864 25.2235 4.99792 25.1647C5.06929 25.4808 5.15921 25.797 5.26474 26.11C5.67884 27.3405 5.32211 28.199 5.31745 28.2083L4.65042 29.6046L6.13958 29.9967C6.15822 30.0029 6.60801 30.1253 7.17113 30.1253C7.42709 30.1253 7.67056 30.099 7.90019 30.0448C8.07384 30.0045 8.23991 29.9503 8.39962 29.8851C8.59198 30.2307 8.82621 30.5454 9.09923 30.8273C10.0532 31.8053 11.4043 32.3012 13.1168 32.3012H13.123L14.3453 32.2857L11.82 33.3333L13.7373 34.2585C14.4337 34.5979 15.2605 34.9992 16.1012 35.3061L15.8623 35.9601L16.5231 36.2608C16.582 36.2871 17.8525 36.8559 19.9653 36.9767C19.9653 36.9767 20.4756 37 20.7563 37C21.037 37 21.5411 36.9753 21.5411 36.9753C23.64 36.8512 24.901 36.2887 24.96 36.2608L25.6223 35.9586L25.3803 35.3031C26.2459 34.9869 27.1021 34.57 27.7691 34.2446L29.6507 33.3318L27.1331 32.2827L28.3601 32.2981C30.0742 32.2981 31.4269 31.8022 32.3792 30.8228C32.6507 30.5423 32.885 30.2277 33.0789 29.882C33.2387 29.9472 33.4061 30.0014 33.5798 30.0417C33.8079 30.0959 34.0514 30.1223 34.3074 30.1223C34.8611 30.1223 35.3157 29.9999 35.328 29.9967L36.8234 29.6016L36.1718 28.2316C36.1563 28.1959 35.7996 27.3389 36.2138 26.1069C36.3192 25.7923 36.4076 25.4762 36.479 25.1615C36.7598 25.2204 37.0529 25.2514 37.3555 25.2514C39.1252 25.2514 39.9738 24.007 40.1382 23.7374L40.8673 22.4697L39.5162 21.9149C38.5777 21.5258 38.1528 20.6223 37.9619 19.8181C39.7054 19.6693 40.6423 18.2001 40.9278 17.3074ZM16.779 5.3466L16.7605 5.35129L16.776 5.33111L16.779 5.3466Z" fill="white"/>
<path d="M20.7382 5.27075C19.308 5.27228 18.2363 5.74029 18.002 6.29044L20.7382 7.36914L23.4745 6.29044C23.2418 5.74029 22.17 5.27228 20.7382 5.27075Z" fill="white"/>
<path d="M20.7645 33.8245H20.7614H20.7381H20.7117H20.7102C19.843 33.8307 18.6502 33.6525 18.0747 33.4851L17.3828 35.3556C17.8389 35.5184 19.3839 35.8283 20.7381 35.8283C22.0891 35.8283 23.6357 35.5169 24.0902 35.3556L23.3998 33.4851C22.8229 33.654 21.6315 33.8307 20.7645 33.8245Z" fill="white"/>
<path d="M26.001 31.9648C25.486 32.2562 24.3365 32.6932 23.668 32.8962L24.2295 34.4413C25.2641 34.1592 26.1172 33.8292 26.8231 33.4758L25.6581 33.0883L26.001 31.9648Z" fill="white"/>
<path d="M15.4764 31.9648L15.8208 33.0883L14.6543 33.4758C15.3585 33.8292 16.2163 34.1592 17.2463 34.4413L17.8078 32.8962C17.1423 32.6932 15.9913 32.2546 15.4764 31.9648Z" fill="white"/>
<path d="M20.7383 3.48217C21.8164 3.48217 22.8743 3.73941 23.6871 4.19203C23.7616 3.94244 23.8655 3.64025 24.0066 3.3241L23.6996 3.3613L23.3768 3.39544L23.2403 3.10253L22.8293 2.2347L22.08 2.62514L21.7885 2.77394L21.5558 2.54463L20.7414 1.73877L19.9286 2.54463L19.6959 2.77394L19.4043 2.62514L18.6504 2.2347L18.244 3.10253L18.1045 3.39544L17.7818 3.3613L17.4746 3.3241C17.6158 3.64177 17.7182 3.94244 17.7942 4.19203C18.6086 3.73941 19.6633 3.48217 20.7383 3.48217Z" fill="white"/>
<path d="M37.198 13.5122C37.3377 13.5602 37.4803 13.5819 37.6215 13.5819C38.2311 13.5819 38.8206 13.1883 39.0238 12.7373C39.0238 12.7373 37.9054 12.6691 36.7032 11.4494C36.3201 11.0542 35.9152 10.9365 35.5678 10.9365C35.0279 10.9365 34.623 11.2217 34.623 11.2217C36.075 11.9934 36.3712 13.2332 37.198 13.5122Z" fill="white"/>
<path d="M3.85583 13.5819C3.99694 13.5819 4.13967 13.5602 4.27622 13.5122C5.10605 13.2332 5.40388 11.9934 6.85582 11.2217C6.85582 11.2217 6.44932 10.9365 5.91266 10.9365C5.56364 10.9365 5.15876 11.0542 4.77406 11.4494C3.57351 12.6691 2.45508 12.7373 2.45508 12.7373C2.65519 13.1883 3.24619 13.5819 3.85583 13.5819Z" fill="white"/>
<path d="M37.591 18.5505C37.6158 18.5519 37.6375 18.5519 37.6639 18.5519C39.1856 18.5519 39.7022 16.9231 39.7022 16.9231H39.6727C39.3935 16.9231 37.1303 16.8581 35.531 14.8263C34.4778 13.4906 33.6153 12.3158 31.9105 11.8539L31.743 11.8245L31.7058 11.6541C31.6592 11.3937 31.8377 11.1504 32.2425 10.8869C34.5941 9.34811 32.9979 7.38607 32.9979 7.38607C32.9979 7.38607 32.3263 8.95598 30.8232 8.95598C30.7875 8.95598 30.7487 8.95437 30.7115 8.95437C30.5409 8.94512 30.3765 8.93887 30.2104 8.90334L29.9328 8.84899C29.9328 8.84899 30.361 7.6852 29.3278 6.61587C28.5491 5.80849 27.6014 5.67212 27.0538 5.67212C26.7776 5.67212 26.6024 5.70769 26.6024 5.70769C27.122 6.38646 27.4974 7.51163 26.8972 8.20589C26.3791 8.80251 25.1133 8.83196 25.1133 9.7215C25.1133 10.0981 25.4654 10.5383 26.0983 10.9334C28.0016 12.1314 29.8909 13.7198 30.6758 15.8492C31.6577 18.5055 30.5517 20.2676 28.9726 21.278C28.9726 21.278 29.4675 21.7336 30.1857 21.7909C30.3315 21.8049 30.4742 21.811 30.6076 21.811C32.1231 21.811 32.9064 21.1012 32.9064 21.1012C32.9064 21.1012 32.7776 22.0822 31.9881 22.9935C31.2606 23.835 30.3051 24.3294 28.8485 24.3511C28.8485 24.3511 28.802 25.0267 29.4473 25.611C29.8599 25.9798 30.8139 26.1007 30.8139 26.1007C30.8139 26.1007 29.0285 26.4618 28.8315 29.0964C28.7244 30.5236 28.3599 31.0196 28.3599 31.0196H28.3925C32.5357 31.0196 32.4286 27.4692 32.4286 27.4692C32.4286 27.4692 32.7171 28.5198 33.8728 28.7942C34.0123 28.8314 34.1613 28.8453 34.304 28.8453C34.6764 28.8453 34.9989 28.7585 34.9989 28.7585C34.9989 28.7585 34.394 27.4831 34.9942 25.6993C35.4922 24.2193 35.4116 23.1221 35.4116 23.1221C35.4116 23.1221 35.9699 23.9652 37.3537 23.973H37.3676C38.5202 23.973 39.0227 23.1005 39.0227 23.1005C36.2601 21.9552 36.5331 18.2576 36.5331 18.2576C36.5331 18.2576 36.8915 18.524 37.591 18.5505ZM36.7595 22.4123C35.6364 21.8591 34.926 20.39 34.7539 19.8599C34.5677 22.7734 33.1437 24.7958 31.4793 26.7423C30.6153 27.7511 30.3144 28.7321 30.3144 28.7321C30.3144 28.7321 30.4804 27.621 31.228 26.716C32.7808 24.8516 34.256 22.5317 34.3661 19.8491C34.4421 17.977 33.9597 16.4583 33.2074 15.2077C33.6277 16.511 33.5688 18.1072 32.1401 19.5964C32.1401 19.5964 34.9834 16.1916 31.0078 12.7017C29.4162 11.3736 27.6758 10.5538 26.7793 9.97264C30.0181 11.028 31.5988 9.86565 31.5988 9.86565C30.5641 10.7614 29.2255 10.7459 28.3955 10.6173C28.6205 10.7274 28.8548 10.842 29.1076 10.9768C31.8376 12.4584 34.2916 14.8961 34.7104 18.273V18.2466C35.3464 21.5615 36.7595 22.4123 36.7595 22.4123Z" fill="white"/>
<path d="M10.6617 26.1007C10.6617 26.1007 11.6157 25.9814 12.0283 25.611C12.672 25.0267 12.6271 24.3511 12.6271 24.3511C11.169 24.3309 10.215 23.835 9.48287 22.9951C8.69945 22.0838 8.56919 21.1028 8.56919 21.1028C8.56919 21.1028 9.35245 21.8126 10.8665 21.8126C11.003 21.8126 11.1442 21.8064 11.2899 21.7924C12.0082 21.7351 12.5045 21.2795 12.5045 21.2795C10.9253 20.269 9.81792 18.5055 10.7982 15.8492C11.5847 13.7214 13.4724 12.1314 15.3758 10.9334C16.0087 10.5383 16.3607 10.0996 16.3607 9.7215C16.3607 8.83196 15.0965 8.80251 14.5784 8.20589C13.9782 7.51163 14.3551 6.38493 14.8732 5.70769C14.8732 5.70769 14.701 5.67212 14.4233 5.67212C13.8773 5.67212 12.9295 5.80849 12.1508 6.61587C11.1146 7.6852 11.5444 8.84899 11.5444 8.84899L11.2667 8.90334C11.1008 8.93887 10.9347 8.94512 10.7656 8.95437C10.7269 8.95437 10.6927 8.95598 10.6555 8.95598C9.14935 8.95598 8.48079 7.3876 8.48079 7.3876C8.48079 7.3876 6.88459 9.34965 9.23461 10.8885C9.6395 11.1519 9.81638 11.3952 9.76984 11.6556L9.73251 11.8261L9.56191 11.8556C7.86029 12.3174 6.99631 13.492 5.94306 14.8279C4.34686 16.8566 2.08678 16.9231 1.80457 16.9231H1.77344C1.77344 16.9231 2.29003 18.5519 3.81172 18.5519C3.83656 18.5519 3.85825 18.5519 3.88461 18.5505C4.58417 18.5256 4.94404 18.2576 4.94404 18.2576C4.94404 18.2576 5.21399 21.9535 2.45445 23.1005C2.45445 23.1005 2.95706 23.973 4.10955 23.973H4.12354C5.50868 23.9652 6.06562 23.1221 6.06562 23.1221C6.06562 23.1221 5.98492 24.2193 6.48134 25.6993C7.08156 27.4831 6.47972 28.7585 6.47972 28.7585C6.47972 28.7585 6.80239 28.8453 7.17311 28.8453C7.31735 28.8453 7.46475 28.8314 7.60282 28.7942C8.7568 28.5198 9.04692 27.4692 9.04692 27.4692C9.04692 27.4692 8.94142 31.0196 13.0847 31.0196H13.114C13.114 31.0196 12.7512 30.5236 12.6457 29.0964C12.4472 26.4618 10.6617 26.1007 10.6617 26.1007ZM9.99633 26.7423C8.33189 24.7958 6.90944 22.7734 6.72169 19.8599C6.54957 20.3884 5.84219 21.8591 4.7192 22.4123C4.7192 22.4123 6.1307 21.5615 6.76518 18.2466V18.273C7.18557 14.8977 9.63797 12.4584 12.3695 10.9768C12.6193 10.8404 12.8566 10.7258 13.08 10.6173C12.2501 10.7459 10.9115 10.7614 9.8768 9.86565C9.8768 9.86565 11.4574 11.028 14.6948 9.97264C13.7983 10.5538 12.0593 11.3736 10.4678 12.7017C6.49056 16.1916 9.33543 19.5964 9.33543 19.5964C7.9053 18.1055 7.84795 16.511 8.26826 15.2077C7.51442 16.4598 7.03351 17.977 7.11106 19.8491C7.21963 22.5317 8.69477 24.8516 10.2444 26.716C10.9937 27.6195 11.1628 28.7321 11.1628 28.7321C11.1628 28.7321 10.8586 27.7511 9.99633 26.7423Z" fill="white"/>
<path d="M17.6746 13.1202C17.7428 13.1929 17.8095 13.2721 17.8732 13.351C17.8887 13.3697 17.9026 13.3867 17.9181 13.4085C17.9771 13.4874 18.0376 13.5712 18.095 13.6564C18.1074 13.6734 18.1199 13.6936 18.1337 13.7136C18.2036 13.8191 18.2688 13.9276 18.3338 14.0392C18.931 15.0697 19.8882 15.685 20.7366 15.6865C21.5867 15.685 22.5407 15.0697 23.141 14.0392C23.2077 13.9245 23.2744 13.8129 23.3441 13.7091C23.355 13.6936 23.3659 13.6796 23.3751 13.6642C23.4341 13.5758 23.4962 13.489 23.5614 13.4053C23.5753 13.3867 23.5877 13.3712 23.6001 13.3557C23.6668 13.2736 23.735 13.193 23.8049 13.1186C23.8172 13.1062 23.8265 13.0954 23.8374 13.0861C24.1414 12.7746 24.5044 12.5374 24.979 12.4058L24.7681 12.2834H24.7557L23.9149 11.7952L23.051 11.3008L20.7428 12.5561L20.7366 12.5514L20.7319 12.5561L18.4222 11.3008L17.5599 11.7936L16.7176 12.2817H16.7082L16.4941 12.4042C16.9703 12.5359 17.3318 12.7699 17.6374 13.0814C17.6512 13.0938 17.6606 13.1078 17.6746 13.1202ZM19.8028 13.0194H20.78H21.7557V13.6889C21.5262 13.4085 21.0795 13.4658 21.0795 13.4658V14.4313C21.0795 14.4313 21.0965 14.9055 21.2624 15.1115H20.78H20.2961C20.4651 14.907 20.4807 14.4313 20.4807 14.4313V13.4658C20.4807 13.4658 20.0355 13.4085 19.8028 13.6889V13.0194Z" fill="white"/>
<path d="M20.5384 11.7206V7.80134L18.041 6.95508L18.7002 10.7536L20.5384 11.7206ZM20.0017 8.76372V9.39288L19.8807 9.33707C19.8745 9.33244 19.6977 9.29213 19.3874 9.04724C18.8756 8.65057 18.8663 8.2848 18.8663 8.2848L20.0017 8.76372Z" fill="white"/>
<path d="M22.7772 10.7536L23.4333 6.95508L20.9375 7.80134V11.7206L22.7772 10.7536ZM21.4743 8.76372L22.6096 8.28635C22.6096 8.28635 22.6004 8.65211 22.0869 9.04878C21.7783 9.29367 21.5999 9.33391 21.5936 9.33861L21.4726 9.39434V8.76372H21.4743Z" fill="white"/>
<path d="M17.0068 20.8068C17.2504 20.8951 17.5451 20.9137 17.6955 20.9137C17.7018 20.8951 17.7095 20.8718 17.7173 20.844C17.7312 20.799 17.7437 20.7556 17.753 20.706C17.7949 20.4892 17.8104 20.2427 17.8134 20.0846C17.711 20.021 17.5668 19.9079 17.4862 19.739C17.3931 19.5437 17.2613 19.4539 17.0673 19.4539C16.816 19.4539 16.5462 19.6042 16.4313 19.6755C16.3399 20.2163 16.7384 20.7076 17.0068 20.8068Z" fill="white"/>
<path d="M22.5292 18.7268C22.0654 19.2305 21.158 20.1077 21.113 20.1526L21.0587 20.2084L18.1906 20.1634C18.189 20.4471 18.1425 20.6888 18.0975 20.8655C18.0898 20.8949 18.082 20.9259 18.0742 20.9569L21.4868 21.5691C21.842 21.3211 22.8193 20.6082 23.1978 20.3293C22.9216 19.9264 22.8952 19.449 22.9573 19.1128C22.7774 18.9965 22.6393 18.8663 22.5292 18.7268Z" fill="white"/>
<path d="M22.9191 15.2806C22.2582 15.9361 21.6239 16.1778 21.0577 16.2336C20.9553 16.2445 20.8514 16.2506 20.7459 16.2506H20.7381H20.7319C20.6265 16.2506 20.521 16.2445 20.4185 16.2336C20.3193 16.2243 20.2154 16.2088 20.1115 16.1856C20.0742 16.3328 20.0277 16.6412 20.1611 16.9326C20.2805 17.1976 20.5241 17.3944 20.8793 17.5246L20.9987 17.571L21.0003 17.6997C21.0003 17.7384 21.0282 18.5722 21.9387 18.8031C22.0876 18.6497 22.2226 18.5118 22.3219 18.397C22.1357 17.96 22.2334 17.5137 22.5033 17.2952C22.491 17.3416 22.3731 18.4358 23.2511 18.8418L23.3953 18.9101L23.3519 19.0634C23.3378 19.1099 23.0447 20.1684 24.1073 20.562L24.295 20.6333L24.2112 20.8162C24.1926 20.8565 23.7754 21.8174 24.7573 22.3628H26.887V20.6736C26.1301 20.5806 25.8089 19.9732 25.7267 19.5423C25.3747 19.4819 25.1016 19.33 24.9154 19.082C24.4686 18.4946 24.8534 17.9569 24.858 17.9275C24.8565 17.9322 24.858 18.5055 25.2117 18.8589C25.387 19.0293 25.5949 19.1611 25.9097 19.1906L26.0648 19.2045L26.0789 19.3626C26.0819 19.3966 26.1673 20.1715 26.8885 20.2939L26.887 16.8442C26.887 16.3096 27.0437 15.7718 27.2314 15.2759H22.9191V15.2806Z" fill="white"/>
<path d="M17.1882 16.8608L17.1309 19.0584L17.3805 19.0956L17.9917 16.9879L17.6815 16.3401L17.1882 16.8608Z" fill="white"/>
<path d="M23.9262 26.939C23.9448 26.939 23.9665 26.9421 23.9867 26.9468C24.3667 27.0553 24.463 28.4252 25.1299 28.5476C25.1951 28.5616 25.2556 28.5647 25.3083 28.5647C25.5007 28.5647 25.6155 28.4825 25.7395 28.3369C25.7395 28.3369 25.4045 27.8099 25.1532 27.4551C24.8197 26.9902 24.5607 26.4275 23.9402 26.4275C23.9262 26.4275 23.9076 26.4275 23.8921 26.4292C23.6874 26.44 23.5617 26.5391 23.5617 26.5391C23.3104 26.3811 23.0762 26.3268 22.8636 26.3268C22.4744 26.3268 22.1719 26.5051 22.0213 26.5051H22.0152L20.6284 26.3688C20.4112 26.3486 20.2406 26.1301 20.1786 26.0449C20.163 26.0215 20.1553 26.0076 20.1553 26.0076C20.1553 25.9704 20.1553 25.9317 20.1522 25.8976C20.1057 24.7648 19.2277 24.2797 18.9159 24.2719C18.9159 24.2719 18.9531 24.0565 18.8679 23.9744L18.5622 24.3447L17.5586 23.8411L18.2737 24.6764L17.6672 25.3567C17.5911 25.4343 17.6005 25.5397 17.6315 25.583L17.8937 25.8139L18.2257 25.6124C18.2427 25.6001 18.2722 25.5969 18.3094 25.5969C18.4009 25.5969 18.539 25.6201 18.6631 25.6201C18.798 25.6201 18.9159 25.5907 18.9299 25.4636C18.888 25.8836 18.4987 26.6135 18.7546 27.1869L18.9439 27.6194L17.7184 27.4426L17.1445 28.4113C16.9677 28.7336 16.9397 29.0823 17.1103 29.2714L17.3243 29.5395C17.3243 29.5395 17.6253 29.2202 17.6936 29.011L17.5958 28.9041C17.5136 28.8142 17.5183 28.7336 17.568 28.636L17.9278 28.0393L19.375 28.3803L19.451 28.2501C19.5488 28.0874 19.69 28.0377 19.8451 28.0377C19.9087 28.0377 19.9738 28.0455 20.0421 28.0564C20.3105 28.1091 20.7526 28.1803 21.1946 28.1803C21.6801 28.1803 22.161 28.0936 22.4168 27.8069C22.9412 28.5833 24.0038 28.7073 23.92 29.1008L23.6408 30.4306C23.8254 30.4228 24.0038 30.4104 24.1728 30.3871L24.4381 29.0032C24.4676 28.8529 24.4955 28.6498 24.4955 28.6498C24.3931 28.5461 24.1449 28.326 24.0054 28.0595C23.8176 27.6999 23.92 27.5124 23.7447 27.0443C23.7509 27.0475 23.8037 26.939 23.9262 26.939ZM18.5126 24.9956C18.4413 24.9941 18.39 24.9336 18.3931 24.8624C18.3994 24.7942 18.4567 24.7399 18.5265 24.7461C18.5979 24.7493 18.6491 24.8112 18.646 24.8795C18.6398 24.9476 18.5809 25.0003 18.5126 24.9956Z" fill="white"/>
<path d="M16.5362 28.1974C16.5362 28.1974 17.0154 28.0006 17.0588 27.8595L16.9953 27.6999C16.9503 27.5961 16.9565 27.4829 17.0433 27.421L17.5614 27.0629L18.427 27.2288C18.427 27.2288 18.2703 27.0335 18.2859 26.7716L17.4607 26.5964L16.6819 27.0707C16.3484 27.3202 16.3236 27.7277 16.4337 27.9694L16.5362 28.1974Z" fill="white"/>
<path d="M22.6543 30.4508C22.8094 30.4446 22.98 30.4415 23.1678 30.4415C23.1678 30.4415 23.613 29.1413 23.6377 29.0995C23.388 28.9894 22.8699 28.715 22.6698 28.5896C22.8017 28.7864 23.1227 29.0126 23.0592 29.1862L22.6543 30.4508Z" fill="white"/>
<path d="M26.8914 22.7395H14.5859V27.3639C14.5859 29.2546 15.9557 30.4387 17.9768 30.4387C19.6661 30.4387 20.1112 30.5036 20.7395 31.1267C21.1723 30.6959 21.5307 30.5346 22.2659 30.4742L22.2829 30.403L22.6707 29.205C22.649 29.1787 22.0146 28.4581 22.0146 28.4581C21.7633 28.5418 21.5524 28.5557 21.1971 28.5557C20.8326 28.5557 20.4215 28.5138 19.9763 28.4302C19.9313 28.4194 19.8895 28.4162 19.8475 28.4162C19.7932 28.4162 19.7886 28.4209 19.7747 28.4472L19.6971 28.5742L19.5559 28.8067L19.2907 28.7463L18.1102 28.4689L17.9489 28.7355L17.9737 28.7633L18.118 28.9214L18.0544 29.1275C17.9675 29.3972 17.6852 29.7118 17.5999 29.7986L17.3051 30.1148L17.0369 29.7754L16.8352 29.5228C16.6226 29.2856 16.5731 28.9214 16.6925 28.5403C16.6893 28.5433 16.6846 28.5448 16.6801 28.5448L16.3466 28.6828L16.196 28.3573L16.0906 28.1265C15.9092 27.7204 15.9757 27.1269 16.4645 26.7688L17.4154 26.2326L18.3197 26.4109C18.3414 26.324 18.3739 26.0141 18.4003 25.9351C18.3833 25.9336 18.3662 25.9289 18.3491 25.9289L17.8279 26.1226L17.3253 25.7755C17.3253 25.7755 17.1283 25.5863 17.3067 25.3973L17.7937 24.6613L16.5606 23.1145L18.4561 23.8926L18.5818 23.736L18.8377 23.4307L19.1278 23.7066C19.21 23.7856 19.2565 23.8832 19.2798 23.9809C19.8025 24.1839 20.7379 24.7837 20.8201 25.7584L20.527 25.8762V25.884C20.5937 25.963 20.6495 25.9956 20.6665 25.9986L22.0192 26.1319C22.0533 26.1257 22.0968 26.1102 22.1449 26.0963C22.3124 26.039 22.5652 25.9568 22.8646 25.9568C23.1082 25.9568 23.3438 26.0125 23.5703 26.118C23.6541 26.087 23.7566 26.0637 23.8745 26.056L23.9395 26.0545C24.6639 26.0545 25.0238 26.5952 25.3124 27.0262C25.3604 27.1004 25.4085 27.1718 25.4582 27.2415C25.711 27.598 26.0413 28.1202 26.0554 28.142L26.2043 28.3744L26.0212 28.5867C25.8801 28.7494 25.6691 28.9401 25.3061 28.9401C25.2317 28.9401 25.1495 28.9323 25.0611 28.9152C24.9836 28.9013 24.9137 28.878 24.8455 28.8501C24.8346 28.9214 24.8207 29.0067 24.8066 29.0795L24.5693 30.3162C25.9887 29.9675 26.8899 28.8966 26.8899 27.3655L26.8914 22.7395Z" fill="#FFDD2D"/>
<path d="M14.5853 22.3674H24.1545C23.6767 21.8746 23.683 21.2501 23.8055 20.844C23.6659 20.7773 23.5511 20.6967 23.4488 20.61C23.0749 20.8858 21.9333 21.7165 21.6355 21.9241L21.5719 21.9676L17.8164 21.2888H17.7405C17.6505 21.2888 17.5187 21.2856 17.3744 21.2686C17.334 21.4375 17.1883 21.5538 17.0207 21.5538C17.002 21.5538 16.9803 21.5522 16.9602 21.5475C16.8624 21.5305 16.7773 21.4809 16.7198 21.3988C16.6609 21.3182 16.6376 21.2221 16.6547 21.123L16.6686 21.0423C16.2808 20.7696 15.9241 20.1605 16.0822 19.5189L16.0977 19.4508L16.1521 19.412C16.1598 19.4058 16.2249 19.3624 16.3211 19.3066L16.0481 19.2648C15.9458 19.2462 15.8775 19.1516 15.8931 19.051C15.9101 18.9487 16.0063 18.8757 16.1071 18.8959L16.757 18.9982L16.816 16.7108L17.7839 15.688L18.3873 16.9573L17.7497 19.1579L18.3238 19.2477C18.4245 19.2632 18.4944 19.3577 18.4789 19.4616C18.4633 19.553 18.3858 19.6166 18.2942 19.6166C18.2849 19.6166 18.2741 19.6166 18.2647 19.6151L17.7978 19.5391C17.8041 19.553 17.8133 19.5607 17.8196 19.5762C17.8692 19.6786 17.9794 19.753 18.0445 19.7839L20.908 19.8289C21.0289 19.7111 21.3299 19.4166 21.6386 19.1051C20.9344 18.8386 20.6784 18.2311 20.6349 17.8281C20.241 17.6608 19.9695 17.4098 19.8191 17.0827C19.636 16.6783 19.7011 16.2738 19.7492 16.077C19.3676 15.9375 18.966 15.6834 18.5564 15.2773H14.2441C14.4288 15.7731 14.5853 16.311 14.5853 16.8457V22.3674Z" fill="#FFDD2D"/>
<path d="M18.5282 24.7461C18.4584 24.7399 18.3995 24.794 18.3948 24.8623C18.3901 24.9335 18.4429 24.9939 18.5143 24.9955C18.5824 25.0017 18.643 24.949 18.6491 24.8793C18.6491 24.8111 18.5996 24.7476 18.5282 24.7461Z" fill="black"/>
<path d="M26.8754 33.1316L26.1665 32.8604L26.3619 32.1289L26.5775 31.3308C26.5775 31.3308 25.3211 32.0112 23.5512 32.5227C23.0486 32.6667 22.6686 32.7318 22.6686 32.7318V33.2742C22.6686 33.2742 21.7224 33.4385 20.7653 33.4385H20.7543H20.7405H20.7218H20.7109C19.754 33.4385 18.8077 33.2742 18.8077 33.2742V32.7318C18.8077 32.7318 18.426 32.6667 17.9251 32.5227C16.1551 32.0112 14.9003 31.3308 14.9003 31.3308L15.1127 32.1289L15.3128 32.8604L14.6024 33.1316L13.8145 33.426C14.7188 33.8615 15.9705 34.497 17.117 34.81L16.847 35.5477C16.847 35.5477 18.3004 36.2094 20.7218 36.2157V36.2172H20.7297H20.7405H20.7498H20.756V36.2157C23.1805 36.2094 24.6323 35.5477 24.6323 35.5477L24.3608 34.81C25.5071 34.497 26.7622 33.8615 27.6618 33.426L26.8754 33.1316ZM14.6551 33.4757L15.8216 33.0883L15.4773 31.9647C15.9907 32.256 17.1433 32.693 17.8102 32.8961L17.2472 34.4411C16.2171 34.1576 15.3594 33.8275 14.6551 33.4757ZM20.7405 35.8282C19.3862 35.8282 17.8397 35.5167 17.3853 35.3556L18.077 33.485C18.651 33.6524 19.8454 33.8305 20.7125 33.8243H20.7141H20.7405H20.7637H20.7668C21.634 33.8305 22.8252 33.6524 23.4023 33.485L24.0925 35.3556C23.6381 35.5182 22.0931 35.8282 20.7405 35.8282ZM24.2306 34.4411L23.6691 32.8961C24.3376 32.693 25.487 32.256 26.002 31.9647L25.6593 33.0883L26.8242 33.4757C26.1184 33.8275 25.2652 34.1576 24.2306 34.4411Z" fill="black"/>
<path d="M20.7371 3.93453C22.1798 3.93453 23.3337 4.41191 23.9713 4.9218C23.9713 4.9218 24.1605 3.78267 24.8074 2.77695L23.6455 2.90863L23.0375 1.61774L21.8695 2.21905L20.7371 1.1001L19.6079 2.21905L18.4383 1.61774L17.8318 2.90863L16.6699 2.77695C17.3167 3.78267 17.506 4.9218 17.506 4.9218C18.1451 4.41191 19.296 3.93453 20.7371 3.93453ZM17.779 3.36114L18.1017 3.39528L18.2413 3.10238L18.6476 2.23454L19.4015 2.62346L19.6932 2.77226L19.9259 2.54294L20.7387 1.73708L21.5531 2.54294L21.7857 2.77226L22.0773 2.62346L22.8266 2.23454L23.2377 3.10238L23.3741 3.39528L23.6968 3.36114L24.0039 3.32394C23.8627 3.64172 23.7588 3.94228 23.6843 4.19187C22.8715 3.73936 21.8136 3.48202 20.7356 3.48202C19.6622 3.48202 18.6058 3.73936 17.7898 4.19187C17.7139 3.94228 17.6115 3.64009 17.4703 3.32394L17.779 3.36114Z" fill="black"/>
<path d="M37.6622 19.0493C39.5283 19.0493 40.1518 17.1525 40.1782 17.0719L40.386 16.4039L39.6864 16.4256H39.6834C39.4368 16.4256 37.3783 16.3713 35.9187 14.5179L35.7806 14.3459C34.8267 13.134 33.9223 11.9825 32.306 11.4571C32.3525 11.4154 32.4192 11.3626 32.5107 11.3037C33.3685 10.7396 33.868 10.0546 33.9936 9.25964C34.1766 8.06323 33.4135 7.11012 33.3794 7.07139L32.8597 6.42982L32.5356 7.19074C32.5139 7.23874 31.9678 8.45689 30.8199 8.45689H30.7346C30.6556 8.45219 30.581 8.44911 30.5066 8.44286C30.547 7.89896 30.4476 7.05743 29.6845 6.26859C28.7677 5.31861 27.6416 5.17603 27.0522 5.17603C26.7372 5.17603 26.5279 5.21476 26.5061 5.21792L25.7213 5.37283L26.2052 6.00982C26.5853 6.50107 26.9296 7.40772 26.5216 7.88193C26.3913 8.03224 26.123 8.15465 25.8655 8.27706C25.3365 8.52033 24.6152 8.85819 24.6152 9.7199C24.6152 10.2778 25.048 10.8605 25.8329 11.3564C28.1566 12.8163 29.5898 14.3397 30.2088 16.0211C31.1659 18.6077 29.9171 20.083 28.7041 20.8594L28.1596 21.2096L28.6359 21.6466C28.6995 21.7025 29.2828 22.2154 30.1436 22.2899C30.3065 22.3007 30.4631 22.3099 30.609 22.3099C31.1612 22.3099 31.6313 22.2232 32.0128 22.1069C31.9073 22.2913 31.7785 22.4789 31.6157 22.668C30.9224 23.4706 30.0692 23.8365 28.8422 23.8551L28.3861 23.8628L28.3505 24.32C28.3458 24.4114 28.3117 25.2591 29.1152 25.9798C29.2378 26.0912 29.3867 26.1828 29.5418 26.2587C28.9973 26.7485 28.4435 27.6008 28.3366 29.0622C28.2466 30.2818 27.9549 30.7328 27.9519 30.7374L27.4477 31.506L28.3583 31.5185C29.8629 31.5185 31.0154 31.1032 31.8142 30.2818C32.2858 29.7952 32.5558 29.2466 32.7155 28.76C32.9777 28.9831 33.3159 29.1784 33.7563 29.2822C33.9239 29.321 34.1069 29.3426 34.3039 29.3426C34.729 29.3426 35.0842 29.2527 35.1245 29.2435L35.7061 29.0885L35.4487 28.546C35.43 28.5027 34.9446 27.4148 35.4672 25.8619C35.6922 25.1909 35.807 24.5896 35.8628 24.1216C36.2289 24.3122 36.7191 24.4703 37.3535 24.4718C38.793 24.4718 39.4274 23.3979 39.4569 23.3529L39.7408 22.8601L39.215 22.6432C37.4993 21.9318 37.1193 20.0209 37.0433 18.9858C37.1984 19.0152 37.3752 19.0431 37.5753 19.0493H37.6622ZM39.0225 23.1003C39.0225 23.1003 38.5199 23.9728 37.3674 23.9728H37.3535C35.9698 23.9651 35.4114 23.122 35.4114 23.122C35.4114 23.122 35.4921 24.2193 34.9926 25.6992C34.3923 27.483 34.9972 28.7585 34.9972 28.7585C34.9972 28.7585 34.6746 28.8452 34.3024 28.8452C34.1596 28.8452 34.0107 28.8313 33.8711 28.794C32.7155 28.5198 32.427 27.469 32.427 27.469C32.427 27.469 32.534 31.0195 28.3908 31.0195H28.3583C28.3583 31.0195 28.7228 30.5235 28.8313 29.0962C29.0283 26.4617 30.8138 26.1007 30.8138 26.1007C30.8138 26.1007 29.8612 25.9813 29.4487 25.6109C28.8034 25.0266 28.8484 24.3509 28.8484 24.3509C30.3065 24.3308 31.2605 23.8349 31.9879 22.9934C32.776 22.0821 32.9063 21.1012 32.9063 21.1012C32.9063 21.1012 32.1229 21.811 30.6075 21.811C30.4741 21.811 30.3313 21.8047 30.1855 21.7908C29.4689 21.7335 28.9725 21.2778 28.9725 21.2778C30.55 20.2674 31.6576 18.5038 30.6757 15.8475C29.8892 13.7198 27.9999 12.1298 26.0982 10.9318C25.4653 10.5366 25.1131 10.0981 25.1131 9.7199C25.1131 8.83036 26.379 8.80246 26.8986 8.20421C27.4973 7.50995 27.1219 6.38334 26.6023 5.7061C26.6023 5.7061 26.7776 5.67043 27.0537 5.67043C27.6012 5.67043 28.549 5.80832 29.3277 6.61419C30.3624 7.68351 29.9326 8.8474 29.9326 8.8474L30.2103 8.90166C30.3763 8.93728 30.5408 8.94352 30.7114 8.95123C30.7486 8.95123 30.7858 8.95277 30.823 8.95277C32.3261 8.95277 32.9978 7.38285 32.9978 7.38285C32.9978 7.38285 34.5956 9.34643 32.2439 10.8837C31.839 11.1472 31.6606 11.3905 31.7072 11.6508L31.7445 11.8213L31.912 11.8508C33.6167 12.3126 34.4792 13.4874 35.5324 14.8231C37.1317 16.8549 39.3949 16.92 39.6741 16.92H39.7036C39.7036 16.92 39.187 18.5487 37.6653 18.5487C37.6405 18.5487 37.6188 18.5487 37.5924 18.5473C36.8928 18.5224 36.5345 18.2543 36.5345 18.2543C36.5345 18.2543 36.2599 21.9535 39.0225 23.1003Z" fill="black"/>
<path d="M34.3847 11.6619C35.0811 12.0322 35.486 12.5282 35.8412 12.9682C36.1902 13.3975 36.5222 13.8113 37.0402 13.9833C37.2248 14.0469 37.4202 14.0764 37.6188 14.0764C38.3975 14.0764 39.1793 13.6005 39.4755 12.9419L39.7734 12.2817L39.0521 12.2383C39.0179 12.2368 38.0904 12.1531 37.0573 11.0977C36.6323 10.6654 36.1188 10.4375 35.565 10.4375C34.8888 10.4375 34.3877 10.7754 34.3319 10.8095L33.668 11.276L34.3847 11.6619ZM35.5666 10.9366C35.914 10.9366 36.3189 11.0543 36.7021 11.4495C37.9042 12.6692 39.0226 12.7374 39.0226 12.7374C38.8194 13.1868 38.23 13.582 37.6203 13.582C37.4793 13.582 37.338 13.5603 37.1969 13.5123C36.3701 13.2333 36.0738 11.9935 34.6204 11.2217C34.6204 11.2217 35.0269 10.9366 35.5666 10.9366Z" fill="black"/>
<path d="M34.7105 18.2465V18.2714C34.2917 14.8961 31.8377 12.4583 29.1076 10.9752C28.8548 10.8404 28.6221 10.7257 28.3957 10.6157C29.2271 10.7443 30.5657 10.7598 31.5988 9.86401C31.5988 9.86401 30.0182 11.0264 26.7793 9.971C27.676 10.5521 29.4179 11.372 31.0078 12.7001C34.9835 16.19 32.1386 19.5948 32.1386 19.5948C33.5673 18.1056 33.6262 16.5094 33.2059 15.206C33.9582 16.4566 34.439 17.9753 34.3645 19.8475C34.2545 22.53 32.7793 24.85 31.2265 26.7144C30.4804 27.6194 30.313 28.7305 30.313 28.7305C30.313 28.7305 30.6138 27.7496 31.4778 26.7406C33.1422 24.7943 34.5646 22.7718 34.7508 19.8583C34.923 20.3868 35.6319 21.8575 36.7565 22.4107C36.7595 22.4123 35.3464 21.5615 34.7105 18.2465Z" fill="black"/>
<path d="M13.5228 30.7359C13.5212 30.7313 13.2327 30.2803 13.1397 29.0606C13.0312 27.5992 12.4788 26.7468 11.9329 26.2571C12.0911 26.1827 12.2369 26.0913 12.3595 25.9782C13.1614 25.2575 13.1272 24.4099 13.1226 24.3185L13.0916 23.8613L12.6324 23.8535C11.4086 23.8333 10.5538 23.4676 9.86046 22.6664C9.69915 22.4774 9.56889 22.2898 9.46339 22.1054C9.8449 22.2216 10.3118 22.3085 10.8656 22.3085C11.0146 22.3085 11.1682 22.2991 11.331 22.2883C12.1919 22.2139 12.7752 21.7024 12.8403 21.6452L13.3165 21.2082L12.772 20.8578C11.5543 20.0799 10.3103 18.6045 11.2658 16.0196C11.8847 14.3381 13.3165 12.8147 15.6432 11.3548C16.4282 10.8589 16.8578 10.2763 16.8578 9.71836C16.8578 8.85672 16.1381 8.51733 15.6091 8.27552C15.3516 8.15311 15.0833 8.0307 14.9531 7.88039C14.5435 7.40768 14.8893 6.49959 15.2679 6.00825L15.755 5.37136L14.9669 5.21635C14.9437 5.21329 14.7374 5.17456 14.421 5.17456C13.8314 5.17456 12.7085 5.31714 11.7901 6.26712C11.0254 7.05749 10.9246 7.89896 10.9634 8.44132C10.8889 8.44757 10.8145 8.45073 10.7369 8.45527H10.6532C9.50218 8.45527 8.95775 7.23727 8.93605 7.18917L8.61173 6.42825L8.08746 7.06982C8.05802 7.10866 7.29177 8.06323 7.47789 9.2581C7.60197 10.0531 8.10142 10.738 8.9592 11.3022C9.05228 11.3611 9.11745 11.4137 9.16399 11.4557C7.54926 11.9809 6.64644 13.134 5.69244 14.3458L5.55437 14.5179C4.09634 16.3713 2.03322 16.4257 1.78659 16.4257L1.08398 16.404L1.29798 17.0718C1.32281 17.1524 1.94483 19.0493 3.8124 19.0493L3.90242 19.0463C4.09938 19.0401 4.27627 19.0137 4.43451 18.9827C4.35686 20.0163 3.97682 21.9272 2.25969 22.6401L1.73539 22.8571L2.01934 23.3499C2.04722 23.3948 2.68322 24.4688 4.12573 24.4688C4.75556 24.4672 5.24569 24.3091 5.61337 24.1185C5.66922 24.5865 5.78397 25.1878 6.00892 25.8588C6.53169 27.4117 6.0446 28.4996 6.02594 28.543L5.76846 29.0855L6.35176 29.2404C6.39048 29.2497 6.74883 29.3395 7.17226 29.3395C7.37084 29.3395 7.55392 29.3179 7.71837 29.2791C8.16045 29.1753 8.50164 28.9801 8.76063 28.7569C8.91888 29.2434 9.19036 29.7921 9.66043 30.2787C10.4607 31.1 11.6117 31.5154 13.1163 31.5154L14.0285 31.503L13.5228 30.7359ZM13.0822 31.0195C8.93904 31.0195 9.04462 27.469 9.04462 27.469C9.04462 27.469 8.7561 28.5198 7.60045 28.7941C7.46238 28.8313 7.31499 28.8453 7.17073 28.8453C6.7985 28.8453 6.47736 28.7584 6.47736 28.7584C6.47736 28.7584 7.0792 27.483 6.47887 25.6993C5.98256 24.2192 6.06325 23.1221 6.06325 23.1221C6.06325 23.1221 5.50632 23.9651 4.12118 23.9728H4.10719C2.95469 23.9728 2.45209 23.1003 2.45209 23.1003C5.21315 21.9551 4.94167 18.2574 4.94167 18.2574C4.94167 18.2574 4.58343 18.524 3.88224 18.5503C3.85741 18.5519 3.83419 18.5519 3.80935 18.5519C2.28604 18.5519 1.77108 16.9231 1.77108 16.9231H1.80209C2.0829 16.9231 4.34298 16.858 5.94221 14.8263C6.99546 13.4904 7.85945 12.3172 9.56107 11.854L9.73166 11.8245L9.769 11.654C9.81553 11.3936 9.63866 11.1503 9.23384 10.8869C6.88223 9.34798 8.47994 7.38597 8.47994 7.38597C8.47994 7.38597 9.1485 8.95439 10.6547 8.95439C10.6919 8.95439 10.7261 8.95277 10.7648 8.95277C10.9338 8.94344 11.1014 8.93728 11.2658 8.90166L11.5435 8.8474C11.5435 8.8474 11.1138 7.68357 12.15 6.61425C12.9287 5.80686 13.8765 5.67049 14.4224 5.67049C14.7001 5.67049 14.8723 5.70607 14.8723 5.70607C14.3543 6.38484 13.9789 7.51001 14.5775 8.20429C15.0957 8.80092 16.3599 8.83036 16.3599 9.7199C16.3599 10.0965 16.0078 10.5367 15.375 10.9318C13.4716 12.1298 11.5823 13.7198 10.7974 15.8476C9.81707 18.5039 10.923 20.2658 12.5037 21.2779C12.5037 21.2779 12.0073 21.7334 11.2891 21.7908C11.1433 21.8048 11.0022 21.811 10.8656 21.811C9.35168 21.811 8.56834 21.1011 8.56834 21.1011C8.56834 21.1011 8.6986 22.0822 9.48202 22.9934C10.2141 23.8349 11.1682 24.3308 12.6263 24.351C12.6263 24.351 12.6728 25.0267 12.0275 25.6109C11.6134 25.9797 10.6608 26.1006 10.6608 26.1006C10.6608 26.1006 12.4479 26.4617 12.6433 29.0963C12.7503 30.5235 13.1117 31.0195 13.1117 31.0195H13.0822Z" fill="black"/>
<path d="M3.85463 14.0782C4.05474 14.0782 4.25018 14.0486 4.43468 13.9851C4.95593 13.8131 5.2863 13.3993 5.63532 12.97C5.99215 12.5299 6.39389 12.034 7.09031 11.6636L7.80702 11.2793L7.1415 10.8128C7.08565 10.7772 6.58619 10.4409 5.91146 10.4409C5.35615 10.4409 4.84118 10.6672 4.41765 11.101C3.38457 12.1549 2.45854 12.24 2.42438 12.2417L1.70312 12.2834L1.99943 12.9452C2.29716 13.6007 3.07742 14.0782 3.85463 14.0782ZM4.77286 11.4513C5.15756 11.056 5.56244 10.9383 5.91146 10.9383C6.44812 10.9383 6.85452 11.2234 6.85452 11.2234C5.40268 11.9968 5.10485 13.2351 4.27492 13.514C4.13847 13.562 3.99574 13.5838 3.85463 13.5838C3.24498 13.5838 2.65551 13.1901 2.45388 12.7392C2.45388 12.7376 3.57069 12.6693 4.77286 11.4513Z" fill="black"/>
<path d="M7.11028 19.8492C7.03274 17.9771 7.51365 16.4583 8.26745 15.2077C7.84707 16.511 7.9045 18.1072 9.3347 19.5966C9.3347 19.5966 6.48979 16.1918 10.467 12.7018C12.0586 11.3736 13.799 10.5538 14.694 9.97264C11.4567 11.028 9.876 9.86572 9.876 9.86572C10.9091 10.7615 12.2478 10.746 13.0793 10.6159C12.8543 10.7258 12.6185 10.8405 12.3687 10.9753C9.63563 12.4584 7.18317 14.8962 6.76278 18.2715V18.2452C6.1284 21.5601 4.7168 22.4109 4.7168 22.4109C5.83989 21.8576 6.54727 20.3884 6.71939 19.8585C6.90714 22.772 8.32948 24.7944 9.99392 26.7409C10.8579 27.7497 11.162 28.7307 11.162 28.7307C11.162 28.7307 10.9929 27.6195 10.2437 26.7144C8.69405 24.8533 7.21886 22.5318 7.11028 19.8492Z" fill="black"/>
<path d="M19.8027 13.0193V13.6888C20.0339 13.4082 20.4807 13.4657 20.4807 13.4657V14.4311C20.4807 14.4311 20.4651 14.9054 20.296 15.1114H20.78H21.2624C21.0965 14.9069 21.0793 14.4311 21.0793 14.4311V13.4657C21.0793 13.4657 21.5261 13.4082 21.7557 13.6888V13.0193H20.78H19.8027Z" fill="black"/>
<path d="M19.3864 9.04905C19.695 9.29402 19.8734 9.33426 19.8797 9.33896L20.0006 9.39469V8.76392L18.8652 8.28662C18.8652 8.28816 18.876 8.6523 19.3864 9.04905Z" fill="black"/>
<path d="M22.0873 9.04905C22.6007 8.6523 22.61 8.28662 22.61 8.28662L21.4746 8.76392V9.39469L21.594 9.33896C21.6018 9.33426 21.7786 9.29402 22.0873 9.04905Z" fill="black"/>
<path d="M24.1323 6.48107C24.1323 5.52488 22.5207 4.66479 20.7415 4.66479H20.7399H20.7353H20.7306C18.9514 4.66479 17.3397 5.52488 17.3397 6.48107L17.3755 6.71661L18.0858 10.7909L17.3724 11.2047L15.5264 12.2817H15.5327C15.5327 12.2817 15.117 12.494 14.9246 12.6258C14.2219 13.114 14.0731 13.8253 14.4809 14.1197C14.5818 13.5401 15.0409 12.9326 15.9003 12.9326C16.5192 12.9326 16.9907 13.2518 17.3724 13.7308C17.4701 13.8516 17.5632 13.9803 17.65 14.1197C17.757 14.2948 17.864 14.4483 17.9711 14.5971H13.2168C13.5658 15.2991 13.8977 16.043 13.8977 16.8504V27.3638C13.8977 29.9085 15.8569 31.1234 17.9757 31.1234C19.6138 31.1234 19.8341 31.0491 20.7385 31.9479C21.6381 31.0475 21.8584 31.1234 23.498 31.1234C25.6184 31.1234 27.5745 29.9085 27.5745 27.3638V16.8504C27.5745 16.043 27.9064 15.2991 28.257 14.5971H23.501C23.6065 14.4498 23.7136 14.2948 23.8205 14.1197C23.909 13.9803 24.0005 13.8516 24.0967 13.7308C24.4814 13.2504 24.9513 12.9326 25.5703 12.9326C26.4296 12.9326 26.8873 13.5386 26.9896 14.1197C27.3977 13.8253 27.2502 13.114 26.5429 12.6258C26.3536 12.494 25.9379 12.2817 25.9379 12.2817H25.9441L24.0982 11.2047L23.3878 10.7909L24.0982 6.71661L24.1323 6.48107ZM18.0393 6.9553L20.5367 7.80142V11.7207L18.6986 10.7522L18.0393 6.9553ZM18.5559 15.2804C18.9655 15.688 19.3672 15.9407 19.7487 16.0801C19.699 16.277 19.634 16.683 19.8186 17.0874C19.969 17.4129 20.242 17.664 20.6344 17.8314C20.6779 18.2343 20.9323 18.8402 21.6381 19.1084C21.3294 19.4198 21.0284 19.7127 20.9059 19.8321L18.044 19.7871C17.9789 19.7545 17.8687 19.6817 17.8192 19.5779C17.8129 19.564 17.8036 19.5562 17.799 19.5407L18.2658 19.6166C18.2767 19.6181 18.2859 19.6181 18.2953 19.6181C18.3853 19.6181 18.4643 19.5562 18.4799 19.4632C18.4954 19.3594 18.4256 19.2648 18.3248 19.2493L17.7508 19.1594L18.3884 16.9603L17.785 15.6911L16.8171 16.714L16.758 19.0013L16.1082 18.8991C16.0073 18.8789 15.9111 18.9534 15.8941 19.054C15.8786 19.1549 15.9468 19.2493 16.0492 19.268L16.3222 19.3097C16.2245 19.3656 16.1609 19.4089 16.1531 19.4151L16.0972 19.4539L16.0817 19.5222C15.9236 20.1637 16.2818 20.7728 16.6682 21.0455L16.6542 21.126C16.6387 21.2253 16.6604 21.3213 16.7193 21.4019C16.7751 21.4841 16.862 21.5337 16.9582 21.5507C16.9784 21.5538 17 21.5553 17.0187 21.5553C17.1862 21.5553 17.3321 21.4391 17.3739 21.2703C17.5182 21.2872 17.65 21.2903 17.74 21.2903H17.816L21.5714 21.9676L21.635 21.9258C21.9343 21.7165 23.0745 20.8859 23.4483 20.6115C23.5507 20.6999 23.6654 20.7806 23.805 20.8471C23.6841 21.2531 23.6763 21.8777 24.1557 22.3706H14.5849V16.8519C14.5849 16.3173 14.4283 15.7795 14.2436 15.2836H18.5559V15.2804ZM23.197 20.3295C22.817 20.6085 21.8398 21.3213 21.4861 21.5693L18.0735 20.9572C18.0813 20.9262 18.089 20.8967 18.0968 20.8657C18.1417 20.689 18.1867 20.4473 18.1899 20.1637L21.0579 20.2102L21.1122 20.1543C21.1557 20.111 22.0647 19.2338 22.5285 18.7286C22.6386 18.8665 22.7766 18.9983 22.9565 19.1145C22.8945 19.4493 22.9209 19.9266 23.197 20.3295ZM17.484 19.739C17.5647 19.908 17.7104 20.0211 17.8113 20.0847C17.8082 20.2427 17.7927 20.4891 17.7508 20.7061C17.7415 20.7541 17.7292 20.7991 17.7151 20.844C17.7075 20.872 17.6996 20.8952 17.6934 20.9138C17.543 20.9138 17.2467 20.8952 17.0047 20.8068C16.7364 20.7076 16.3362 20.2164 16.4292 19.6756C16.5456 19.6042 16.8139 19.4539 17.0653 19.4539C17.2592 19.4523 17.391 19.5438 17.484 19.739ZM17.1288 19.0588L17.1862 16.8627L17.6795 16.3405L17.9898 16.9883L17.3785 19.0959L17.1288 19.0588ZM23.166 30.4431C22.9798 30.4431 22.8076 30.4462 22.6525 30.4524L23.059 29.1894C23.1226 29.0142 22.8014 28.7895 22.6696 28.5927C22.8697 28.7183 23.3878 28.9926 23.6376 29.1026C23.6112 29.1429 23.166 30.4431 23.166 30.4431ZM24.441 29.0081L24.1758 30.3905C24.0068 30.4137 23.8268 30.426 23.6422 30.4338L23.9214 29.1042C24.0052 28.7089 22.9427 28.5865 22.4184 27.8101C22.1624 28.0983 21.68 28.1836 21.196 28.1836C20.7539 28.1836 20.3119 28.1123 20.0434 28.0596C19.9752 28.0488 19.91 28.041 19.8465 28.041C19.6914 28.041 19.5501 28.0891 19.4525 28.2533L19.3749 28.3835L17.9277 28.0426L17.5678 28.6377C17.5166 28.7338 17.5135 28.816 17.5957 28.9057L17.6934 29.0128C17.6267 29.2235 17.3259 29.5412 17.3259 29.5412L17.1103 29.273C16.9395 29.0824 16.9675 28.7353 17.1459 28.413L17.7198 27.4443L18.9453 27.621L18.7545 27.1871C18.4985 26.6137 18.8879 25.8838 18.9297 25.4638C18.9158 25.5909 18.7994 25.6188 18.6629 25.6188C18.5389 25.6188 18.4008 25.5955 18.3092 25.5955C18.2736 25.5955 18.2425 25.5986 18.2255 25.611L17.8935 25.8125L17.6314 25.5815C17.6003 25.5366 17.5895 25.4328 17.667 25.3553L18.2736 24.6765L17.557 23.8412L18.5606 24.3449L18.8661 23.9745C18.95 24.0567 18.9142 24.2721 18.9142 24.2721C19.2276 24.2798 20.1055 24.7649 20.1521 25.8962C20.1552 25.9302 20.1552 25.969 20.1552 26.0061C20.1552 26.0061 20.163 26.0201 20.1785 26.0434C20.2405 26.1287 20.4111 26.3471 20.6282 26.3673L22.015 26.5037H22.0212C22.1733 26.5037 22.4757 26.3255 22.8635 26.3255C23.0745 26.3255 23.3102 26.3797 23.5615 26.5378C23.5615 26.5378 23.6871 26.4386 23.8919 26.4277C23.9074 26.4261 23.9246 26.4261 23.9401 26.4261C24.5621 26.4261 24.8195 26.9872 25.1531 27.4537C25.4044 27.8086 25.7394 28.3355 25.7394 28.3355C25.6153 28.4827 25.5005 28.5633 25.3082 28.5633C25.2555 28.5633 25.1949 28.5586 25.1298 28.5462C24.4627 28.4238 24.3667 27.0538 23.9866 26.9453C23.9664 26.9391 23.9447 26.9376 23.9261 26.9376C23.8035 26.9376 23.7493 27.0461 23.7493 27.0461C23.9229 27.5125 23.8221 27.7016 24.0083 28.0612C24.1478 28.3277 24.396 28.5478 24.4985 28.6516C24.4985 28.6547 24.4705 28.8562 24.441 29.0081ZM16.9939 27.7L17.0574 27.8597C17.0156 27.9992 16.5348 28.1975 16.5348 28.1975L16.4307 27.9712C16.3206 27.7295 16.3439 27.3219 16.679 27.0724L17.4577 26.5982L18.2829 26.7733C18.2674 27.0352 18.424 27.2305 18.424 27.2305L17.5585 27.0647L17.0404 27.4227C16.9536 27.4831 16.9473 27.5963 16.9939 27.7ZM24.5714 30.3145L24.8087 29.0777C24.8211 29.005 24.8366 28.9197 24.8475 28.8484C24.9142 28.8764 24.9855 28.8996 25.0631 28.9135C25.1515 28.9306 25.2336 28.9383 25.3082 28.9383C25.6712 28.9383 25.8821 28.7477 26.0233 28.5849L26.2064 28.3727L26.0574 28.1402C26.0434 28.117 25.7146 27.5963 25.4602 27.2398C25.4105 27.1701 25.3624 27.1003 25.3144 27.0244C25.0259 26.5935 24.6644 26.0528 23.9401 26.0528L23.8749 26.0543C23.7554 26.062 23.6531 26.0852 23.5709 26.1162C23.3428 26.0093 23.1086 25.9551 22.865 25.9551C22.5657 25.9551 22.3128 26.0373 22.1453 26.0945C22.0972 26.1085 22.0538 26.124 22.0197 26.1302L20.6655 25.9969C20.6485 25.9939 20.5926 25.9613 20.5259 25.8807V25.8745L20.819 25.7567C20.7369 24.782 19.7999 24.1822 19.2772 23.9791C19.254 23.8815 19.2074 23.7838 19.1252 23.7049L18.8336 23.429L18.5776 23.7359L18.452 23.8924L16.5565 23.1143L17.7896 24.661L17.3026 25.3972C17.1241 25.5862 17.3212 25.7753 17.3212 25.7753L17.8237 26.1209L18.345 25.9272C18.3635 25.9272 18.3791 25.9319 18.3961 25.9334C18.3713 26.0124 18.3388 26.3223 18.317 26.4091L17.4127 26.2309L16.4618 26.7672C15.9732 27.1251 15.9065 27.7187 16.088 28.1248L16.1934 28.3555L16.3439 28.6811L16.6759 28.5431C16.6805 28.5415 16.6852 28.54 16.6882 28.537C16.5688 28.9182 16.617 29.2808 16.831 29.5195L17.0326 29.7736L17.301 30.113L17.5957 29.7968C17.6826 29.7101 17.9634 29.3955 18.0502 29.1258L18.1138 28.9196L17.9696 28.7616L17.9463 28.7338L18.1077 28.4672L19.288 28.7446L19.5533 28.805L19.6944 28.5725L19.772 28.4454C19.786 28.4191 19.7906 28.4144 19.8449 28.4144C19.8868 28.4144 19.9287 28.4191 19.9737 28.4285C20.4188 28.5121 20.8299 28.554 21.1944 28.554C21.5481 28.554 21.759 28.54 22.0119 28.4564C22.0119 28.4564 22.6463 29.1754 22.668 29.2033L22.2803 30.3997L22.2632 30.4726C21.5279 30.5314 21.1697 30.6926 20.7369 31.125C20.1086 30.5019 19.6634 30.4369 17.9743 30.4369C15.953 30.4369 14.5834 29.2529 14.5834 27.3622V22.7394H26.8873L26.8904 27.3622C26.8919 28.8964 25.9907 29.9657 24.5714 30.3145ZM27.2316 15.2804C27.044 15.7764 26.8873 16.3142 26.8873 16.8488L26.8889 20.2986C26.1675 20.1777 26.0822 19.4012 26.0791 19.3672L26.0651 19.2091L25.91 19.1951C25.5967 19.1657 25.3888 19.0323 25.2136 18.862C24.8599 18.5086 24.8583 17.9352 24.8599 17.9305C24.8553 17.9599 24.4705 18.4977 24.9173 19.085C25.1049 19.333 25.3764 19.4849 25.7285 19.5454C25.8107 19.9762 26.1318 20.5836 26.8889 20.6767V22.3659H24.7606C23.7787 21.8204 24.1944 20.8595 24.2145 20.8193L24.2983 20.6363L24.1107 20.565C23.0481 20.1714 23.3397 19.1114 23.3552 19.0665L23.3986 18.9114L23.2544 18.8433C22.3764 18.4372 22.4959 17.3416 22.5068 17.2967C22.2368 17.5152 22.1391 17.9615 22.3252 18.3985C22.2244 18.5132 22.0895 18.6527 21.9421 18.8045C21.0331 18.5737 21.0053 17.7384 21.0053 17.6997L21.0036 17.571L20.8842 17.5245C20.529 17.3927 20.2854 17.196 20.166 16.9309C20.0311 16.6381 20.0791 16.3312 20.1164 16.1839C20.2203 16.2072 20.3242 16.2243 20.4235 16.232C20.5259 16.2428 20.6314 16.2491 20.7369 16.2491H20.7431H20.7508C20.8563 16.2491 20.9603 16.2428 21.0626 16.232C21.6288 16.1762 22.2632 15.9329 22.924 15.2789H27.2316V15.2804ZM23.9152 11.7935L24.7559 12.2817H24.7683L24.9793 12.4041C24.5047 12.5359 24.1417 12.773 23.8377 13.0845C23.8268 13.0938 23.816 13.1062 23.805 13.117C23.7353 13.1914 23.6654 13.272 23.6003 13.3542C23.5879 13.3697 23.5755 13.3867 23.5615 13.4038C23.4964 13.4874 23.436 13.5727 23.3769 13.6625C23.3676 13.6781 23.3568 13.6936 23.3459 13.7075C23.2761 13.8113 23.2095 13.9229 23.1428 14.0375C22.544 15.0681 21.5884 15.6834 20.7385 15.685C19.89 15.6834 18.9344 15.0681 18.3356 14.0375C18.2704 13.9259 18.2054 13.8175 18.1355 13.7121C18.1216 13.692 18.1091 13.6719 18.0968 13.6547C18.0378 13.5696 17.9789 13.4859 17.9184 13.4069C17.9029 13.3852 17.8889 13.3681 17.8734 13.3495C17.8082 13.2704 17.7415 13.1914 17.6748 13.1186C17.6609 13.1078 17.6516 13.0938 17.6376 13.0814C17.3321 12.7699 16.9706 12.5343 16.4944 12.4041L16.7084 12.2817H16.7177L17.5585 11.7935L18.4225 11.2992L20.7306 12.5545L20.7353 12.5498L20.7415 12.5545L23.0496 11.2992L23.9152 11.7935ZM22.7766 10.7536L20.937 11.7223V7.80142L23.4328 6.9553L22.7766 10.7536ZM20.7369 7.37061L18.0006 6.29048C18.2333 5.74033 19.3066 5.27223 20.7369 5.27069C22.1686 5.27223 23.242 5.74033 23.4731 6.29048L20.7369 7.37061Z" fill="black"/>
<path d="M54.622 23.7721V17.5668H58.2652V15.3087H48.3262V17.5668H51.9692V23.7721H54.622ZM61.8912 20.2339V15.3087H59.3269V23.7721H61.5906L66.0119 18.847V23.7721H68.5763V15.3087H66.3125L61.8912 20.2339ZM77.2033 20.6251V23.7721H79.768V15.3087H77.2033V18.4024H73.0826V15.3087H70.5183V23.7721H73.0826V20.6251H77.2033ZM86.909 23.7721C87.4925 23.7721 88.0231 23.7189 88.5184 23.5766C89.8455 23.2033 90.7111 22.1185 90.7111 20.6428C90.7111 19.2382 89.969 18.2603 88.7844 17.8157C88.217 17.6024 87.5462 17.5846 86.909 17.5846H84.2739V15.3087H81.71V23.7721H86.909ZM86.4667 19.576C86.8209 19.576 87.1567 19.576 87.4572 19.6827C87.882 19.8249 88.1296 20.1805 88.1296 20.6072C88.1296 21.0518 87.882 21.4252 87.4749 21.6029C87.192 21.7274 86.909 21.7274 86.4667 21.7274H84.2739V19.576H86.4667ZM95.309 20.5717L98.3689 23.7721H101.782L97.5202 19.3626L101.623 15.3087H98.4042L95.309 18.4914H94.6021V15.3087H92.0383V23.7721H94.6021V20.5717H95.309ZM107.058 15.0776C103.609 15.0776 101.541 17.0334 101.541 19.5581C101.541 22.0831 103.609 24.0389 107.058 24.0389C110.49 24.0389 112.559 22.0831 112.559 19.5581C112.559 17.0334 110.49 15.0776 107.058 15.0776ZM107.058 21.9764C105.343 21.9764 104.247 20.9451 104.247 19.5581C104.247 18.1714 105.343 17.1578 107.058 17.1578C108.756 17.1578 109.87 18.1714 109.87 19.5581C109.87 20.9451 108.756 21.9764 107.058 21.9764ZM121.099 14.8286H118.535V15.682C115.316 15.7532 113.388 17.1222 113.388 19.5404C113.388 21.9585 115.316 23.221 118.535 23.2921V24.1456H121.099V23.2921C124.335 23.221 126.263 21.9585 126.263 19.5404C126.263 17.1222 124.335 15.7532 121.099 15.682V14.8286ZM118.535 21.4785C116.766 21.4074 115.988 20.6784 115.988 19.5404C115.988 18.4024 116.766 17.5846 118.535 17.5135V21.4785ZM121.099 17.5135C122.886 17.5846 123.646 18.4024 123.646 19.5404C123.646 20.6784 122.886 21.4074 121.099 21.4785V17.5135ZM134.794 14.8286H132.23V15.682C129.011 15.7532 127.084 17.1222 127.084 19.5404C127.084 21.9585 129.011 23.221 132.23 23.2921V24.1456H134.794V23.2921C138.031 23.221 139.959 21.9585 139.959 19.5404C139.959 17.1222 138.031 15.7532 134.794 15.682V14.8286ZM132.23 21.4785C130.462 21.4074 129.683 20.6784 129.683 19.5404C129.683 18.4024 130.462 17.5846 132.23 17.5135V21.4785ZM134.794 17.5135C136.581 17.5846 137.341 18.4024 137.341 19.5404C137.341 20.6784 136.581 21.4074 134.794 21.4785V17.5135Z" fill="black"/>
<g clip-path="url(#clip0)">
<path fill-rule="evenodd" clip-rule="evenodd" d="M224.821 79V79.0066C224.814 79.0066 222.672 79 222.101 80.9716C221.578 82.7795 220.103 87.7707 220.062 87.9083H219.654C219.654 87.9083 218.145 82.8057 217.614 80.9651C217.043 78.9935 214.895 79 214.895 79H210V94H214.895V85.0917H215.099H215.303L218.158 94H221.557L224.413 85.0983H224.821V94H229.716V79H224.821Z" fill="#4DB45E"/>
<path fill-rule="evenodd" clip-rule="evenodd" d="M242.7 79C242.7 79 241.265 79.1245 240.592 80.5721L237.125 87.9083H236.717V79H231.822V94H236.445C236.445 94 237.948 93.869 238.621 92.4279L242.02 85.0917H242.428V94H247.323V79H242.7Z" fill="#4DB45E"/>
<path fill-rule="evenodd" clip-rule="evenodd" d="M249.5 85.8123V94H254.395V89.2184H259.698C262.009 89.2184 263.967 87.797 264.695 85.8123H249.5Z" fill="#4DB45E"/>
<path fill-rule="evenodd" clip-rule="evenodd" d="M259.697 79H248.812C249.356 81.8559 251.579 84.1485 254.455 84.8952C255.108 85.0655 255.795 85.1572 256.502 85.1572H264.891C264.966 84.8166 265 84.4694 265 84.1092C265 81.286 262.627 79 259.697 79Z" fill="url(#paint0_linear)"/>
</g>
<g clip-path="url(#clip1)">
<path d="M50.278 102.052C50.278 103.096 49.4447 103.93 48.403 103.93H1.73633C0.694659 103.93 -0.138672 103.096 -0.138672 102.052V73.9478C-0.138672 72.9044 0.694659 72.0696 1.73633 72.0696H48.403C49.4447 72.0696 50.278 72.9044 50.278 73.9478V102.052Z" fill="white"/>
<path d="M19.0284 81.3217L13.4034 94.7478H9.72287L6.94509 84.0348C6.80621 83.4087 6.59787 83.1304 6.11176 82.8522C5.27843 82.4348 3.88954 81.9478 2.70898 81.7391L2.77843 81.3217H8.68121C9.44509 81.3217 10.1395 81.8087 10.2784 82.713L11.7368 90.5043L15.3479 81.3913H19.0284V81.3217ZM33.4034 90.3652C33.4034 86.8174 28.5423 86.6087 28.5423 85.0783C28.5423 84.5913 29.0284 84.1043 30.0006 83.9652C30.4868 83.8956 31.8757 83.8261 33.4034 84.5913L34.0284 81.7391C33.1951 81.4609 32.1534 81.113 30.7645 81.113C27.3618 81.113 24.9312 82.9217 24.9312 85.5652C24.9312 87.513 26.6673 88.5565 27.9868 89.1826C29.3062 89.8087 29.7923 90.2261 29.7923 90.8522C29.7923 91.7565 28.7507 92.1739 27.709 92.1739C25.9729 92.1739 24.9312 91.687 24.1673 91.3391L23.5423 94.2609C24.3757 94.6087 25.834 94.9565 27.3618 94.9565C30.9729 94.9565 33.334 93.1478 33.4034 90.3652ZM42.4312 94.7478H45.6256L42.8479 81.3217H39.8618C39.1673 81.3217 38.6118 81.7391 38.4034 82.2956L33.1951 94.7478H36.8062L37.5007 92.7304H41.9451L42.4312 94.7478ZM38.5423 90.0174L40.3479 85.0087L41.3895 90.0174H38.5423ZM23.959 81.3217L21.1118 94.7478H17.6395L20.4868 81.3217H23.959Z" fill="#1A1F71"/>
</g>
<path d="M82.3814 102.84V100.798C82.3934 100.626 82.3686 100.453 82.3087 100.292C82.2488 100.13 82.1551 99.9836 82.034 99.8611C81.9128 99.7387 81.7669 99.6435 81.606 99.5819C81.4452 99.5203 81.273 99.4937 81.101 99.5039C80.876 99.4892 80.6511 99.5352 80.4498 99.637C80.2486 99.7388 80.0783 99.8927 79.9568 100.083C79.846 99.8983 79.6876 99.7473 79.4982 99.6455C79.3089 99.5436 79.0955 99.4947 78.8807 99.5039C78.6934 99.4945 78.5069 99.5341 78.3396 99.6189C78.1724 99.7037 78.0302 99.8307 77.9271 99.9873V99.5856H77.2188V102.84H77.9339V101.036C77.9184 100.924 77.9278 100.811 77.9614 100.704C77.995 100.597 78.0519 100.498 78.1281 100.415C78.2043 100.333 78.2978 100.268 78.402 100.226C78.5063 100.183 78.6185 100.165 78.7308 100.171C79.2007 100.171 79.4392 100.478 79.4392 101.029V102.84H80.1543V101.036C80.14 100.925 80.1502 100.812 80.1842 100.705C80.2182 100.598 80.2752 100.5 80.3511 100.418C80.4271 100.335 80.5202 100.271 80.6238 100.228C80.7275 100.185 80.8392 100.166 80.9512 100.171C81.4347 100.171 81.6663 100.478 81.6663 101.029V102.84H82.3814ZM92.9657 99.5856H91.8078V98.5983H91.0927V99.5856H90.432V100.232H91.0927V101.717C91.0927 102.473 91.3856 102.922 92.2233 102.922C92.5362 102.923 92.8431 102.836 93.1087 102.67L92.9044 102.064C92.7144 102.177 92.4988 102.241 92.2778 102.248C91.9236 102.248 91.8078 102.03 91.8078 101.703V100.232H92.9657V99.5856ZM99.007 99.5039C98.8343 99.4988 98.6634 99.5404 98.5124 99.6243C98.3613 99.7081 98.2357 99.8312 98.1488 99.9805V99.5856H97.4473V102.84H98.1556V101.015C98.1556 100.478 98.3872 100.178 98.8504 100.178C99.0019 100.176 99.1523 100.204 99.2931 100.26L99.511 99.5924C99.3492 99.5345 99.1788 99.5046 99.007 99.5039ZM89.8735 99.8443C89.4726 99.606 89.0116 99.4878 88.5454 99.5039C87.7212 99.5039 87.19 99.8988 87.19 100.546C87.19 101.077 87.585 101.404 88.3138 101.506L88.6475 101.553C89.0357 101.608 89.2197 101.71 89.2197 101.894C89.2197 102.146 88.9608 102.289 88.4773 102.289C88.0883 102.3 87.7069 102.18 87.3943 101.948L87.0606 102.5C87.4732 102.788 87.9674 102.936 88.4704 102.922C89.4104 102.922 89.9552 102.479 89.9552 101.86C89.9552 101.288 89.5262 100.988 88.8178 100.886L88.4841 100.838C88.1776 100.798 87.9324 100.736 87.9324 100.518C87.9324 100.28 88.1639 100.137 88.5522 100.137C88.9087 100.142 89.258 100.239 89.567 100.416L89.8735 99.8443ZM108.849 99.5039C108.676 99.4988 108.505 99.5404 108.354 99.6243C108.203 99.7081 108.078 99.8312 107.991 99.9805V99.5856H107.289V102.84H107.997V101.015C107.997 100.478 108.229 100.178 108.692 100.178C108.844 100.176 108.994 100.204 109.135 100.26L109.353 99.5924C109.191 99.5345 109.021 99.5046 108.849 99.5039ZM99.7221 101.213C99.7127 101.442 99.7514 101.671 99.8357 101.884C99.92 102.098 100.048 102.291 100.212 102.452C100.375 102.613 100.571 102.738 100.786 102.819C101 102.9 101.23 102.935 101.459 102.922C101.884 102.943 102.302 102.805 102.63 102.534L102.29 101.962C102.045 102.148 101.746 102.251 101.438 102.255C101.173 102.239 100.924 102.122 100.742 101.928C100.559 101.735 100.458 101.479 100.458 101.213C100.458 100.947 100.559 100.691 100.742 100.498C100.924 100.304 101.173 100.187 101.438 100.171C101.746 100.175 102.045 100.277 102.29 100.464L102.63 99.892C102.302 99.621 101.884 99.4825 101.459 99.5039C101.23 99.4908 101 99.5259 100.786 99.6068C100.571 99.6877 100.375 99.8127 100.212 99.9736C100.048 100.135 99.9201 100.328 99.8358 100.541C99.7514 100.755 99.7127 100.984 99.7221 101.213ZM106.356 101.213V99.5856H105.648V99.9805C105.527 99.8247 105.37 99.7002 105.191 99.6173C105.012 99.5343 104.816 99.4955 104.619 99.5039C104.18 99.5254 103.766 99.7148 103.463 100.033C103.16 100.351 102.991 100.774 102.991 101.213C102.991 101.652 103.16 102.075 103.463 102.393C103.766 102.711 104.18 102.9 104.619 102.922C104.816 102.93 105.012 102.891 105.191 102.809C105.37 102.726 105.527 102.601 105.648 102.445V102.84H106.356V101.213ZM103.72 101.213C103.731 101.021 103.798 100.836 103.913 100.682C104.028 100.527 104.185 100.41 104.366 100.344C104.546 100.278 104.742 100.266 104.93 100.31C105.117 100.354 105.287 100.452 105.42 100.591C105.552 100.731 105.641 100.906 105.675 101.096C105.709 101.285 105.686 101.48 105.611 101.657C105.535 101.834 105.409 101.985 105.249 102.091C105.088 102.197 104.9 102.254 104.708 102.255C104.573 102.256 104.439 102.23 104.315 102.178C104.191 102.125 104.078 102.048 103.986 101.95C103.893 101.852 103.821 101.736 103.776 101.609C103.73 101.482 103.711 101.347 103.72 101.213ZM95.1724 99.5039C94.7307 99.5271 94.3152 99.7205 94.013 100.043C93.7108 100.366 93.5454 100.794 93.5516 101.236C93.5577 101.678 93.7349 102.101 94.046 102.415C94.3571 102.729 94.7779 102.911 95.2201 102.922C95.7061 102.939 96.1813 102.777 96.5551 102.466L96.2077 101.941C95.9387 102.157 95.6056 102.277 95.261 102.282C95.0269 102.302 94.7944 102.229 94.6126 102.081C94.4308 101.932 94.314 101.718 94.287 101.485H96.7049C96.7117 101.397 96.7185 101.308 96.7185 101.213C96.7117 100.198 96.0851 99.5039 95.1724 99.5039ZM95.1588 100.137C95.3727 100.133 95.5796 100.214 95.7341 100.362C95.8886 100.51 95.9781 100.713 95.9829 100.927H94.2938C94.3063 100.708 94.4037 100.503 94.5654 100.356C94.727 100.208 94.94 100.13 95.1588 100.137ZM112.929 101.213V98.2783H112.22V99.9805C112.099 99.8247 111.943 99.7002 111.764 99.6173C111.585 99.5343 111.389 99.4955 111.192 99.5039C110.753 99.5254 110.339 99.7148 110.036 100.033C109.733 100.351 109.564 100.774 109.564 101.213C109.564 101.652 109.733 102.075 110.036 102.393C110.339 102.711 110.753 102.9 111.192 102.922C111.389 102.93 111.585 102.891 111.764 102.809C111.943 102.726 112.099 102.601 112.22 102.445V102.84H112.929V101.213ZM114.109 102.369C114.153 102.368 114.197 102.377 114.237 102.394C114.276 102.41 114.312 102.434 114.342 102.463C114.372 102.493 114.396 102.528 114.413 102.566C114.43 102.606 114.439 102.649 114.439 102.692C114.439 102.735 114.43 102.778 114.413 102.817C114.396 102.856 114.372 102.891 114.342 102.92C114.312 102.95 114.276 102.973 114.237 102.99C114.197 103.007 114.153 103.016 114.109 103.016C114.045 103.016 113.981 102.998 113.927 102.962C113.872 102.927 113.829 102.877 113.804 102.817C113.787 102.778 113.778 102.735 113.778 102.692C113.778 102.649 113.787 102.606 113.804 102.566C113.82 102.528 113.844 102.493 113.874 102.463C113.904 102.434 113.94 102.41 113.979 102.394C114.02 102.377 114.065 102.368 114.109 102.369ZM114.109 102.944C114.143 102.944 114.176 102.938 114.207 102.924C114.237 102.912 114.263 102.893 114.286 102.87C114.333 102.823 114.36 102.759 114.36 102.692C114.36 102.625 114.333 102.561 114.286 102.514C114.263 102.491 114.237 102.473 114.207 102.46C114.176 102.447 114.143 102.44 114.109 102.441C114.075 102.44 114.041 102.447 114.01 102.46C113.98 102.473 113.952 102.491 113.929 102.514C113.882 102.561 113.856 102.625 113.856 102.692C113.856 102.759 113.882 102.823 113.929 102.87C113.952 102.893 113.98 102.912 114.01 102.924C114.041 102.938 114.075 102.944 114.109 102.944ZM114.128 102.541C114.16 102.538 114.192 102.548 114.218 102.566C114.228 102.575 114.236 102.586 114.242 102.598C114.247 102.61 114.25 102.623 114.249 102.637C114.249 102.648 114.247 102.659 114.243 102.67C114.239 102.68 114.232 102.69 114.224 102.698C114.204 102.715 114.179 102.726 114.153 102.728L114.251 102.841H114.174L114.083 102.728H114.054V102.841H113.99V102.541H114.128ZM114.054 102.597V102.677H114.128C114.142 102.678 114.156 102.674 114.168 102.667C114.173 102.664 114.177 102.659 114.18 102.654C114.182 102.648 114.184 102.642 114.183 102.637C114.183 102.631 114.182 102.625 114.18 102.62C114.177 102.614 114.173 102.61 114.168 102.607C114.156 102.6 114.142 102.596 114.128 102.597H114.054ZM110.293 101.213C110.304 101.021 110.371 100.836 110.485 100.682C110.6 100.527 110.758 100.41 110.938 100.344C111.119 100.278 111.315 100.266 111.502 100.31C111.69 100.354 111.86 100.452 111.992 100.591C112.125 100.731 112.213 100.906 112.247 101.096C112.281 101.285 112.259 101.48 112.183 101.657C112.107 101.834 111.982 101.985 111.821 102.091C111.661 102.197 111.473 102.254 111.28 102.255C111.145 102.256 111.012 102.23 110.887 102.178C110.763 102.125 110.651 102.048 110.558 101.95C110.465 101.852 110.394 101.736 110.348 101.609C110.303 101.482 110.284 101.347 110.293 101.213ZM86.3727 101.213V99.5856H85.6643V99.9805C85.5434 99.8247 85.387 99.7002 85.208 99.6173C85.0291 99.5343 84.8329 99.4955 84.6359 99.5039C84.197 99.5254 83.7831 99.7148 83.4801 100.033C83.1771 100.351 83.0081 100.774 83.0081 101.213C83.0081 101.652 83.1771 102.075 83.4801 102.393C83.7831 102.711 84.197 102.9 84.6359 102.922C84.8329 102.93 85.0291 102.891 85.208 102.809C85.387 102.726 85.5434 102.601 85.6643 102.445V102.84H86.3727V101.213ZM83.7369 101.213C83.7479 101.021 83.8149 100.836 83.9296 100.682C84.0443 100.527 84.2017 100.41 84.3824 100.344C84.5631 100.278 84.7592 100.266 84.9465 100.31C85.1338 100.354 85.3042 100.452 85.4365 100.591C85.5689 100.731 85.6575 100.906 85.6914 101.096C85.7253 101.285 85.703 101.48 85.6273 101.657C85.5515 101.834 85.4257 101.985 85.2653 102.091C85.1049 102.197 84.9168 102.254 84.7244 102.255C84.5896 102.256 84.4558 102.23 84.3315 102.178C84.2072 102.125 84.0952 102.048 84.0024 101.95C83.9096 101.852 83.8381 101.736 83.7924 101.609C83.7467 101.482 83.7278 101.347 83.7369 101.213Z" fill="white"/>
<path d="M100.365 74.781H89.6367V94.0549H100.365V74.781Z" fill="#FF5F00"/>
<path d="M90.3156 84.417C90.3139 82.5608 90.7347 80.7286 91.546 79.0589C92.3574 77.3893 93.5381 75.9261 94.9987 74.7801C93.1899 73.3588 91.0176 72.4749 88.73 72.2294C86.4425 71.984 84.132 72.3869 82.0627 73.3921C79.9934 74.3973 78.2487 75.9643 77.0281 77.9139C75.8075 79.8635 75.1602 82.117 75.1602 84.417C75.1602 86.717 75.8075 88.9706 77.0281 90.9202C78.2487 92.8698 79.9934 94.4368 82.0627 95.442C84.132 96.4472 86.4425 96.8501 88.73 96.6046C91.0176 96.3592 93.1899 95.4753 94.9987 94.054C93.5381 92.9079 92.3574 91.4447 91.546 89.7751C90.7347 88.1055 90.3139 86.2732 90.3156 84.417Z" fill="#EB001B"/>
<path d="M114.838 84.417C114.838 86.717 114.191 88.9706 112.97 90.9202C111.75 92.8698 110.005 94.4367 107.936 95.4419C105.867 96.4472 103.556 96.8501 101.269 96.6046C98.981 96.3592 96.8088 95.4753 95 94.054C96.4594 92.9068 97.6391 91.4433 98.4504 89.774C99.2616 88.1046 99.6831 86.2729 99.6831 84.417C99.6831 82.5611 99.2616 80.7294 98.4504 79.0601C97.6391 77.3907 96.4594 75.9273 95 74.7801C96.8088 73.3588 98.981 72.4749 101.269 72.2294C103.556 71.984 105.867 72.3869 107.936 73.3921C110.005 74.3973 111.75 75.9643 112.97 77.9139C114.191 79.8635 114.838 82.1171 114.838 84.417Z" fill="#F79E1B"/>
<path d="M113.664 92.0148V91.6202H113.823V91.5399H113.418V91.6202H113.577V92.0148H113.664ZM114.451 92.0148V91.5391H114.327L114.184 91.8663L114.041 91.5391H113.917V92.0148H114.004V91.656L114.138 91.9654H114.229L114.363 91.6552V92.0148H114.451Z" fill="#F79E1B"/>
<path d="M157.155 102.766V100.73C157.167 100.558 157.142 100.386 157.082 100.226C157.022 100.065 156.929 99.9182 156.808 99.7962C156.687 99.6741 156.541 99.5792 156.38 99.5178C156.22 99.4564 156.048 99.4299 155.876 99.44C155.651 99.4254 155.426 99.4712 155.225 99.5727C155.024 99.6742 154.854 99.8276 154.733 100.017C154.622 99.8332 154.464 99.6827 154.275 99.5811C154.086 99.4796 153.873 99.4308 153.658 99.44C153.471 99.4306 153.285 99.4702 153.118 99.5547C152.951 99.6392 152.809 99.7658 152.706 99.9219V99.5215H151.998V102.766H152.712V100.967C152.697 100.856 152.706 100.743 152.74 100.636C152.773 100.529 152.83 100.431 152.906 100.349C152.982 100.266 153.076 100.202 153.18 100.16C153.284 100.118 153.396 100.099 153.508 100.105C153.978 100.105 154.216 100.411 154.216 100.96V102.766H154.93V100.967C154.916 100.856 154.926 100.744 154.96 100.637C154.994 100.531 155.051 100.433 155.127 100.351C155.203 100.269 155.296 100.204 155.399 100.162C155.503 100.119 155.614 100.1 155.726 100.105C156.209 100.105 156.441 100.411 156.441 100.96V102.766H157.155ZM161.142 101.144V99.5215H160.434V99.9151C160.313 99.7598 160.157 99.6357 159.978 99.553C159.8 99.4704 159.604 99.4316 159.407 99.44C158.968 99.4615 158.555 99.6503 158.252 99.9675C157.95 100.285 157.781 100.706 157.781 101.144C157.781 101.582 157.95 102.003 158.252 102.32C158.555 102.637 158.968 102.826 159.407 102.847C159.604 102.856 159.8 102.817 159.978 102.734C160.157 102.652 160.313 102.527 160.434 102.372V102.766H161.142V101.144ZM158.509 101.144C158.52 100.952 158.587 100.768 158.701 100.614C158.816 100.46 158.973 100.343 159.154 100.277C159.334 100.211 159.53 100.2 159.717 100.243C159.904 100.287 160.074 100.385 160.207 100.524C160.339 100.663 160.427 100.838 160.461 101.027C160.495 101.215 160.473 101.41 160.397 101.586C160.321 101.763 160.196 101.913 160.036 102.019C159.875 102.125 159.687 102.181 159.495 102.182C159.361 102.184 159.227 102.158 159.103 102.106C158.979 102.053 158.867 101.976 158.774 101.878C158.681 101.781 158.61 101.665 158.564 101.539C158.519 101.412 158.5 101.278 158.509 101.144ZM176.281 99.4362C176.52 99.4339 176.757 99.4782 176.979 99.5667C177.186 99.649 177.375 99.771 177.534 99.9257C177.692 100.08 177.816 100.263 177.901 100.466C178.078 100.901 178.078 101.387 177.901 101.821C177.816 102.024 177.692 102.208 177.534 102.362C177.375 102.516 177.186 102.638 176.979 102.721C176.53 102.895 176.032 102.895 175.583 102.721C175.377 102.639 175.189 102.516 175.03 102.362C174.874 102.207 174.75 102.024 174.665 101.821C174.488 101.387 174.488 100.901 174.665 100.466C174.75 100.264 174.874 100.08 175.03 99.9257C175.189 99.7708 175.377 99.6488 175.583 99.5667C175.805 99.4782 176.042 99.4339 176.281 99.4362ZM176.281 100.104C176.143 100.102 176.006 100.128 175.877 100.18C175.756 100.228 175.647 100.301 175.555 100.393C175.462 100.488 175.389 100.599 175.341 100.722C175.237 100.993 175.237 101.294 175.341 101.565C175.389 101.688 175.462 101.8 175.555 101.894C175.647 101.986 175.756 102.059 175.877 102.107C176.137 102.209 176.426 102.209 176.685 102.107C176.807 102.059 176.917 101.986 177.01 101.894C177.103 101.8 177.176 101.688 177.225 101.565C177.33 101.294 177.33 100.993 177.225 100.722C177.176 100.599 177.103 100.487 177.01 100.393C176.917 100.301 176.807 100.229 176.685 100.18C176.557 100.128 176.42 100.102 176.281 100.104ZM164.992 101.144C164.985 100.132 164.359 99.44 163.447 99.44C163.006 99.4631 162.591 99.6558 162.289 99.9777C161.987 100.3 161.822 100.726 161.828 101.166C161.834 101.607 162.011 102.029 162.322 102.342C162.633 102.655 163.053 102.836 163.495 102.847C163.98 102.864 164.455 102.702 164.828 102.392L164.481 101.87C164.213 102.085 163.88 102.204 163.536 102.209C163.302 102.229 163.07 102.157 162.888 102.009C162.707 101.86 162.59 101.648 162.563 101.415H164.978C164.985 101.327 164.992 101.239 164.992 101.144ZM162.57 100.859C162.582 100.641 162.68 100.436 162.841 100.289C163.002 100.142 163.215 100.064 163.434 100.071C163.647 100.067 163.854 100.148 164.008 100.295C164.163 100.443 164.252 100.645 164.257 100.859H162.57ZM167.971 100.35C167.663 100.172 167.314 100.077 166.958 100.071C166.57 100.071 166.339 100.214 166.339 100.451C166.339 100.669 166.584 100.73 166.89 100.77L167.223 100.818C167.931 100.92 168.359 101.218 168.359 101.788C168.359 102.406 167.815 102.847 166.876 102.847C166.374 102.861 165.88 102.714 165.468 102.426L165.801 101.877C166.113 102.108 166.494 102.227 166.883 102.216C167.366 102.216 167.624 102.074 167.624 101.822C167.624 101.639 167.441 101.537 167.053 101.483L166.72 101.436C165.992 101.334 165.597 101.008 165.597 100.478C165.597 99.8337 166.128 99.44 166.951 99.44C167.417 99.424 167.877 99.5418 168.278 99.7794L167.971 100.35ZM171.371 100.166H170.215V101.632C170.215 101.958 170.33 102.175 170.684 102.175C170.905 102.168 171.12 102.105 171.31 101.992L171.514 102.596C171.249 102.761 170.942 102.848 170.63 102.847C169.793 102.847 169.5 102.399 169.5 101.646V100.166H168.84V99.5215H169.5L169.5 98.5374H170.214L170.215 99.5215H171.371V100.166ZM173.82 99.44C173.991 99.4407 174.162 99.4705 174.323 99.5283L174.106 100.193C173.965 100.138 173.815 100.11 173.663 100.112C173.201 100.112 172.969 100.411 172.969 100.947V102.766H172.262V99.5215H172.963V99.9151C173.049 99.7663 173.175 99.6436 173.326 99.56C173.477 99.4764 173.647 99.4349 173.82 99.44ZM178.718 102.293C178.762 102.293 178.806 102.302 178.846 102.319C178.885 102.335 178.921 102.359 178.951 102.388C178.981 102.418 179.005 102.452 179.022 102.491C179.039 102.531 179.047 102.573 179.047 102.616C179.047 102.659 179.039 102.702 179.022 102.741C179.005 102.78 178.981 102.815 178.951 102.844C178.921 102.873 178.885 102.897 178.846 102.914C178.806 102.931 178.762 102.94 178.718 102.939C178.653 102.94 178.59 102.922 178.535 102.886C178.481 102.851 178.438 102.801 178.412 102.741C178.395 102.702 178.387 102.659 178.387 102.616C178.387 102.573 178.395 102.531 178.412 102.491C178.429 102.453 178.453 102.418 178.483 102.388C178.513 102.358 178.548 102.335 178.588 102.319C178.629 102.302 178.673 102.293 178.718 102.293ZM178.718 102.868C178.752 102.868 178.785 102.862 178.816 102.848C178.845 102.835 178.872 102.817 178.895 102.794C178.924 102.765 178.946 102.73 178.958 102.69C178.97 102.651 178.972 102.609 178.965 102.569C178.957 102.528 178.939 102.49 178.913 102.458C178.887 102.426 178.854 102.401 178.816 102.385C178.785 102.372 178.752 102.365 178.718 102.366C178.684 102.365 178.65 102.372 178.619 102.385C178.589 102.397 178.561 102.415 178.538 102.438C178.491 102.486 178.465 102.55 178.465 102.616C178.465 102.683 178.491 102.747 178.538 102.794C178.562 102.818 178.59 102.837 178.621 102.849C178.652 102.862 178.685 102.868 178.718 102.868ZM178.737 102.465C178.769 102.463 178.801 102.472 178.826 102.491C178.837 102.499 178.845 102.51 178.85 102.522C178.856 102.534 178.858 102.548 178.858 102.561C178.858 102.572 178.856 102.584 178.852 102.594C178.847 102.605 178.841 102.614 178.833 102.622C178.813 102.64 178.788 102.65 178.762 102.652L178.86 102.765H178.783L178.692 102.653H178.663V102.765H178.598V102.465H178.737ZM178.663 102.521V102.601H178.736C178.751 102.602 178.765 102.599 178.777 102.591C178.782 102.588 178.786 102.584 178.788 102.578C178.791 102.573 178.792 102.567 178.792 102.561C178.792 102.555 178.791 102.549 178.788 102.544C178.786 102.539 178.782 102.534 178.777 102.531C178.765 102.524 178.751 102.521 178.736 102.521H178.663Z" fill="white"/>
<path d="M170.365 74.7603H159.635V93.998H170.365V74.7603Z" fill="#7375CF"/>
<path d="M160.316 84.3792C160.315 82.5264 160.736 80.6976 161.547 79.0311C162.359 77.3646 163.539 75.9042 165 74.7603C163.191 73.3416 161.019 72.4594 158.731 72.2144C156.443 71.9694 154.132 72.3716 152.062 73.3749C149.992 74.3782 148.247 75.9422 147.026 77.8882C145.806 79.8341 145.158 82.0835 145.158 84.3792C145.158 86.6749 145.806 88.9242 147.026 90.8702C148.247 92.8161 149.992 94.3801 152.062 95.3835C154.132 96.3868 156.443 96.789 158.731 96.544C161.019 96.299 163.191 95.4167 165 93.9981C163.539 92.8542 162.359 91.3937 161.547 89.7272C160.736 88.0608 160.315 86.2319 160.316 84.3792Z" fill="#EB001B"/>
<path d="M183.672 91.9605V91.5666H183.831V91.4864H183.426V91.5666H183.585V91.9605H183.672ZM184.459 91.9605V91.4856H184.335L184.192 91.8122L184.049 91.4856H183.925V91.9605H184.012V91.6023L184.146 91.9111H184.237L184.371 91.6015V91.9605H184.459Z" fill="#00A2E5"/>
<path d="M184.842 84.3792C184.842 86.6748 184.194 88.9242 182.973 90.8701C181.753 92.8161 180.008 94.3801 177.938 95.3834C175.868 96.3868 173.558 96.7889 171.27 96.544C168.982 96.299 166.809 95.4167 165 93.9981C166.46 92.853 167.64 91.3923 168.451 89.7261C169.262 88.0599 169.684 86.2316 169.684 84.3792C169.684 82.5267 169.262 80.6985 168.451 79.0323C167.64 77.366 166.46 75.9053 165 74.7603C166.809 73.3416 168.982 72.4594 171.27 72.2144C173.558 71.9694 175.868 72.3716 177.938 73.3749C180.008 74.3783 181.753 75.9423 182.973 77.8882C184.194 79.8342 184.842 82.0835 184.842 84.3792Z" fill="#00A2E5"/>
<defs>
<linearGradient id="paint0_linear" x1="248.814" y1="82.0786" x2="265" y2="82.0786" gradientUnits="userSpaceOnUse">
<stop offset="0.3" stop-color="#00B4E6"/>
<stop offset="1" stop-color="#088CCB"/>
</linearGradient>
<clipPath id="clip0">
<rect width="55" height="15" fill="white" transform="translate(210 79)"/>
</clipPath>
<clipPath id="clip1">
<rect width="50" height="32" fill="white" transform="translate(0 72)"/>
</clipPath>
</defs>
</svg>
