<svg width="120" height="130" viewBox="0 0 120 130" fill="none" xmlns="http://www.w3.org/2000/svg">
<g clip-path="url(#clip0)">
<path d="M60.4423 86.6599C84.6281 86.6599 104.235 67.2604 104.235 43.33C104.235 19.3995 84.6281 0 60.4423 0C36.2566 0 16.6501 19.3995 16.6501 43.33C16.6501 67.2604 36.2566 86.6599 60.4423 86.6599Z" fill="#F4D44E"/>
<path d="M46.192 76.4867C18.57 60.7074 16.8927 22.0673 42.4398 3.8302C34.3519 7.4307 27.2896 13.4858 22.5166 21.6656C10.4239 42.3897 17.6003 68.8898 38.5455 80.8548C53.9595 89.6601 72.534 88.1389 86.0895 78.4623C73.6863 83.984 58.8703 83.7292 46.192 76.4867Z" fill="#E8C842"/>
<path d="M68.2216 65.1503C65.1913 58.5233 55.6823 58.5711 52.6603 65.152C52.3578 65.811 51.5727 66.1023 50.9066 65.803C50.2406 65.5039 49.9461 64.7271 50.2485 64.068C54.255 55.3394 66.721 55.5106 70.6348 64.0697C70.9363 64.7293 70.6405 65.5056 69.9741 65.8039C69.3092 66.1018 68.5236 65.8108 68.2216 65.1503Z" fill="#656566"/>
<path d="M80.5381 32.6598C78.2789 30.5219 75.4299 29.3809 72.5135 29.4359C71.7819 29.4424 71.1773 28.8761 71.1624 28.1526C71.1475 27.4291 71.7282 26.8305 72.4596 26.8157C76.0802 26.7387 79.5997 28.1456 82.3688 30.7658C82.8975 31.2661 82.9161 32.0955 82.4105 32.6185C81.9056 33.1412 81.0673 33.1603 80.5381 32.6598Z" fill="#656566"/>
<path d="M38.4723 32.6192C37.9667 32.0963 37.9854 31.2666 38.514 30.7666C41.2831 28.1462 44.8043 26.7444 48.4232 26.8165C49.1544 26.8312 49.7353 27.4296 49.7204 28.1533C49.7055 28.8769 49.1057 29.4514 48.3693 29.4367C45.4534 29.3781 42.6041 30.5228 40.3447 32.6605C39.8176 33.1597 38.9789 33.1435 38.4723 32.6192Z" fill="#656566"/>
<path d="M72.892 47.573C75.0019 47.573 76.7123 45.8806 76.7123 43.793C76.7123 41.7054 75.0019 40.0131 72.892 40.0131C70.7822 40.0131 69.0718 41.7054 69.0718 43.793C69.0718 45.8806 70.7822 47.573 72.892 47.573Z" fill="#656566"/>
<path d="M72.8926 43.7923C72.186 42.5814 72.237 41.1459 72.8943 40.0154C72.2445 40.0145 71.5858 40.1742 70.9826 40.5188C69.1553 41.5626 68.5293 43.8744 69.5842 45.6822C70.6392 47.4901 72.9756 48.1094 74.8027 47.0657C75.4059 46.7211 75.875 46.2366 76.1993 45.6793C74.881 45.6774 73.5992 45.0032 72.8926 43.7923Z" fill="#4F4F51"/>
<path d="M47.9909 47.573C50.1008 47.573 51.8112 45.8806 51.8112 43.793C51.8112 41.7054 50.1008 40.0131 47.9909 40.0131C45.881 40.0131 44.1707 41.7054 44.1707 43.793C44.1707 45.8806 45.881 47.573 47.9909 47.573Z" fill="#656566"/>
<path d="M47.99 43.7923C47.2834 42.5814 47.3344 41.1459 47.9917 40.0154C47.3419 40.0145 46.6832 40.1742 46.08 40.5188C44.2527 41.5626 43.6267 43.8744 44.6817 45.6822C45.7366 47.4901 48.073 48.1094 49.9001 47.0657C50.5033 46.7211 50.9725 46.2366 51.2967 45.6793C49.9784 45.6774 48.6966 45.0032 47.99 43.7923Z" fill="#4F4F51"/>
</g>
<g clip-path="url(#clip1)">
<path d="M88.8768 121.237C87.3323 121.237 86.0801 119.998 86.0801 118.47C86.0801 116.942 87.3323 115.703 88.8768 115.703H87.7374C86.1929 115.703 84.9407 114.464 84.9407 112.935C84.9407 111.407 86.1929 110.168 87.7374 110.168H86.598C85.0535 110.168 83.8014 108.929 83.8014 107.401C83.8014 105.873 85.0529 104.635 86.597 104.634H70.2453C68.6324 104.634 67.3384 103.283 67.4562 101.662C67.562 100.207 68.8281 99.0996 70.3029 99.0996C73.7863 99.0996 86.8137 99.0996 91.9317 99.0996C88.3615 95.9121 86.59 92.1606 86.4747 91.9104C85.6244 90.0683 85.7846 88.1024 87.6537 87.1323C89.371 86.241 89.9318 87.0076 91.3348 88.9316C91.4092 89.0337 94.4082 93.6302 97.9528 95.6189C99.6677 96.5811 100.426 96.082 102.624 97.3386C104.825 98.5971 105.801 100.228 106.058 100.515H117.638C118.943 100.515 120 101.561 120 102.851V115.858C120 117.158 118.935 118.212 117.621 118.212C117.365 118.212 106.993 118.212 107.58 118.212C106.474 118.212 105.403 118.574 104.513 119.224C102.889 120.411 100.904 121.143 98.7511 121.228C98.5241 121.245 99.1441 121.233 88.8768 121.237Z" fill="#F4D44E"/>
<path d="M88.8767 118.621C99.1441 118.618 98.524 118.629 98.751 118.612C100.904 118.527 102.889 117.796 104.513 116.608C105.403 115.958 106.474 115.597 107.58 115.597C108.095 115.597 117.379 115.597 117.621 115.597C118.935 115.597 120 114.543 120 113.243V115.858C120 117.158 118.935 118.212 117.621 118.212C117.379 118.212 108.095 118.212 107.58 118.212C106.474 118.212 105.403 118.574 104.513 119.224C102.889 120.411 100.904 121.143 98.751 121.228C98.524 121.245 99.1441 121.233 88.8767 121.237C86.7417 121.237 85.4262 118.976 86.4117 117.162C86.8835 118.031 87.8103 118.621 88.8767 118.621Z" fill="#E8C842"/>
<path d="M70.3028 101.907C70.4803 101.907 91.3171 101.907 90.5577 101.907C91.3164 101.907 91.9316 102.516 91.9316 103.266C91.9316 104.018 91.3157 104.627 90.5561 104.627C90.0373 104.627 70.9366 104.627 70.3028 104.627C68.1152 104.627 66.7454 102.33 67.818 100.503C68.3139 101.348 69.2554 101.907 70.3028 101.907Z" fill="#E8C842"/>
<path d="M84.11 106.138C84.6018 106.929 85.4833 107.458 86.4912 107.459H90.5326C91.3052 107.459 91.9316 108.078 91.9316 108.843C91.9316 109.581 91.327 110.179 90.5812 110.179H87.496C87.5756 110.172 87.6559 110.168 87.7373 110.168H86.5979C84.4958 110.168 83.1618 107.962 84.11 106.138Z" fill="#E8C842"/>
<path d="M87.3947 112.988H90.5984C91.3348 112.988 91.9317 113.578 91.9317 114.307C91.9317 115.081 91.2977 115.708 90.5157 115.708H88.7082C88.764 115.705 88.8201 115.703 88.8767 115.703H87.7374C85.6108 115.703 84.3151 113.476 85.2477 111.675C85.7006 112.406 86.4851 112.912 87.3947 112.988Z" fill="#E8C842"/>
</g>
<g clip-path="url(#clip2)">
<path d="M31.1249 121.238C32.6696 121.238 33.9217 119.999 33.9217 118.47C33.9217 116.942 32.6696 115.703 31.1249 115.703H32.2644C33.809 115.703 35.0612 114.464 35.0612 112.936C35.0612 111.407 33.809 110.169 32.2644 110.169H33.4039C34.9485 110.169 36.2007 108.93 36.2007 107.401C36.2007 105.873 34.949 104.635 33.4049 104.634H49.7573C51.3703 104.634 52.6644 103.283 52.5466 101.662C52.4408 100.207 51.1747 99.0994 49.6998 99.0994C46.2161 99.0994 33.188 99.0994 28.0698 99.0994C31.6401 95.9118 33.4118 92.1601 33.5272 91.9099C34.3775 90.0677 34.2173 88.1017 32.3482 87.1316C30.6307 86.2403 30.0699 87.0069 28.6668 88.931C28.5925 89.033 25.5932 93.6298 22.0485 95.6187C20.3335 96.5809 19.5754 96.0818 17.3772 97.3384C15.1759 98.5969 14.2 100.228 13.9433 100.515H2.36168C1.05736 100.514 0 101.56 0 102.851V115.859C0 117.159 1.06526 118.213 2.37933 118.213C2.63492 118.213 13.0077 118.213 12.4207 118.213C13.5267 118.213 14.5979 118.574 15.4874 119.225C17.1115 120.412 19.0968 121.144 21.2501 121.229C21.4771 121.246 20.857 121.234 31.1249 121.238Z" fill="#F4D44E"/>
<path d="M31.1249 118.622C20.8569 118.618 21.477 118.63 21.2501 118.613C19.0968 118.528 17.1115 117.796 15.4874 116.609C14.5979 115.959 13.5267 115.597 12.4207 115.597C11.906 115.597 2.62106 115.597 2.37933 115.597C1.06526 115.597 0 114.543 0 113.243V115.859C0 117.159 1.06526 118.213 2.37933 118.213C2.62106 118.213 11.9059 118.213 12.4207 118.213C13.5267 118.213 14.5979 118.574 15.4874 119.225C17.1115 120.412 19.0968 121.144 21.2501 121.229C21.477 121.246 20.8569 121.234 31.1249 121.238C33.26 121.238 34.5756 118.977 33.59 117.163C33.1182 118.031 32.1914 118.622 31.1249 118.622Z" fill="#E8C842"/>
<path d="M49.6997 101.907C49.5222 101.907 28.6843 101.907 29.4437 101.907C28.685 101.907 28.0698 102.515 28.0698 103.266C28.0698 104.018 28.6857 104.627 29.4453 104.627C29.9642 104.627 49.0659 104.627 49.6997 104.627C51.909 104.627 53.244 102.307 52.1848 100.503C51.6888 101.348 50.7472 101.907 49.6997 101.907Z" fill="#E8C842"/>
<path d="M35.8919 106.138C35.4 106.929 34.5185 107.458 33.5106 107.459H29.4689C28.6962 107.459 28.0698 108.078 28.0698 108.843C28.0698 109.581 28.6744 110.179 29.4203 110.179H32.5058C32.4262 110.173 32.3459 110.168 32.2645 110.168H33.4039C35.5061 110.168 36.8402 107.962 35.8919 106.138Z" fill="#E8C842"/>
<path d="M32.6071 112.988H29.4032C28.6668 112.988 28.0698 113.579 28.0698 114.307C28.0698 115.081 28.7038 115.708 29.4859 115.708H31.2935C31.2377 115.705 31.1816 115.703 31.125 115.703H32.2644C34.3675 115.703 35.6982 113.498 34.7542 111.676C34.3015 112.406 33.5168 112.912 32.6071 112.988Z" fill="#E8C842"/>
</g>
<defs>
<clipPath id="clip0">
<rect width="87.5912" height="86.6667" fill="white" transform="translate(16.6423)"/>
</clipPath>
<clipPath id="clip1">
<rect width="52.5547" height="52" fill="white" transform="translate(67.4453 78)"/>
</clipPath>
<clipPath id="clip2">
<rect width="52.5547" height="52" fill="white" transform="translate(0 78)"/>
</clipPath>
</defs>
</svg>
