<svg width="207" height="100" viewBox="0 0 207 100" fill="none" xmlns="http://www.w3.org/2000/svg">
<path d="M204.086 44.2915C204.084 44.2891 204.082 44.2863 204.079 44.2839L161.94 2.34836C158.784 -0.793172 153.678 -0.781481 150.535 2.37578C147.393 5.53264 147.405 10.6387 150.562 13.7806L178.854 41.9355H8.06452C3.61049 41.9355 0 45.546 0 50C0 54.454 3.61049 58.0645 8.06452 58.0645H178.854L150.563 86.2194C147.406 89.3613 147.394 94.4674 150.536 97.6242C153.678 100.782 158.784 100.793 161.941 97.6516L204.08 55.7161C204.082 55.7137 204.084 55.7109 204.087 55.7085C207.245 52.556 207.235 47.4335 204.086 44.2915Z" fill="#E5E5E5"/>
</svg>
