<svg width="100" height="100" viewBox="0 0 100 100" fill="none" xmlns="http://www.w3.org/2000/svg">
<g clip-path="url(#clip0)">
<path d="M97.3034 43.4952C97.3011 43.4929 97.2988 43.4906 97.2965 43.4883L56.5044 2.69775C54.7657 0.958252 52.454 0 49.995 0C47.5361 0 45.2244 0.957489 43.4849 2.69699L2.71415 43.4669C2.70042 43.4807 2.68669 43.4952 2.67295 43.5089C-0.897602 47.1001 -0.891499 52.9266 2.6905 56.5086C4.32701 58.1459 6.48841 59.0942 8.79936 59.1934C8.8932 59.2026 8.9878 59.2072 9.08317 59.2072H10.709V89.2265C10.709 95.1668 15.5422 100 21.484 100H37.4432C39.0606 100 40.3728 98.6885 40.3728 97.0703V73.5352C40.3728 70.8244 42.5777 68.6195 45.2885 68.6195H54.7016C57.4123 68.6195 59.6172 70.8244 59.6172 73.5352V97.0703C59.6172 98.6885 60.9287 100 62.5469 100H78.5061C84.4479 100 89.2811 95.1668 89.2811 89.2265V59.2072H90.7886C93.2468 59.2072 95.5585 58.2497 97.2988 56.5102C100.885 52.9221 100.886 47.0856 97.3034 43.4952Z" fill="#E5E5E5"/>
</g>
<defs>
<clipPath id="clip0">
<rect width="100" height="100" fill="white"/>
</clipPath>
</defs>
</svg>
