<svg width="100" height="100" viewBox="0 0 100 100" fill="none" xmlns="http://www.w3.org/2000/svg">
<g clip-path="url(#clip0)">
<path d="M62.4993 54.168C60.1953 54.168 58.333 56.0349 58.333 58.3343V75.0013C58.333 77.297 56.4661 79.1677 54.1658 79.1677H41.666V16.6683C41.666 13.11 39.3993 9.9309 35.9913 8.74759L34.7576 8.33484H54.1658C56.4661 8.33484 58.333 10.2056 58.333 12.502V25.0018C58.333 27.3013 60.1953 29.1682 62.4993 29.1682C64.8034 29.1682 66.6657 27.3013 66.6657 25.0018V12.502C66.6657 5.61042 61.0574 0.00210571 54.1658 0.00210571H9.3749C9.21621 0.00210571 9.08346 0.0730584 8.92935 0.0936574C8.7287 0.0768731 8.5372 0.00210571 8.3335 0.00210571C3.7376 0.00210571 0 3.73894 0 8.33484V83.3341C0 86.8924 2.26667 90.0715 5.67468 91.2548L30.75 99.6135C31.5999 99.8759 32.4452 100.001 33.3332 100.001C37.9291 100.001 41.666 96.2635 41.666 91.6676V87.5012H54.1658C61.0574 87.5012 66.6657 81.8929 66.6657 75.0013V58.3343C66.6657 56.0349 64.8034 54.168 62.4993 54.168Z" fill="#E5E5E5"/>
<path d="M98.7782 38.7216L82.1112 22.0554C80.9203 20.8637 79.1281 20.5051 77.5702 21.1505C76.0161 21.7967 74.9991 23.3172 74.9991 25.001V37.5009H58.3329C56.0327 37.5009 54.1658 39.367 54.1658 41.6673C54.1658 43.9675 56.0327 45.8336 58.3329 45.8336H74.9991V58.3335C74.9991 60.0173 76.0161 61.5378 77.5702 62.184C79.1281 62.8295 80.9203 62.4709 82.1112 61.28L98.7782 44.613C100.407 42.9841 100.407 40.3505 98.7782 38.7216Z" fill="#E5E5E5"/>
</g>
<defs>
<clipPath id="clip0">
<rect width="100" height="100" fill="white"/>
</clipPath>
</defs>
</svg>
