<svg width="100" height="100" viewBox="0 0 100 100" fill="none" xmlns="http://www.w3.org/2000/svg">
<path d="M71.6111 71.218H77.4705V86.2178H71.6111V71.218Z" fill="black"/>
<path d="M74.5342 67.3266C76.0666 67.3266 77.5348 65.9791 77.4639 64.3969C77.3928 62.8096 76.1766 61.4672 74.5342 61.4672C73.0018 61.4672 71.5336 62.8147 71.6045 64.3969C71.6756 65.9842 72.8918 67.3266 74.5342 67.3266Z" fill="black"/>
<path d="M79.7064 49.8359V0H12.876C5.77617 0 0 5.60625 0 12.7061V87.5029H0.0619141C0.712695 94.502 6.61621 100 13.7822 100H74.5723C88.5932 100 100 88.7631 100 74.7424C100 62.4799 91.2746 52.2172 79.7064 49.8359ZM73.8379 49.3262C60.9279 49.6943 50.3986 59.732 49.2506 72.4353H23.5637V5.69863H73.8379V49.3262ZM12.876 5.69863H17.6949V72.4353H13.7822C10.8387 72.4353 8.10996 73.366 5.86856 74.9441V12.7061C5.86856 8.84199 9.01211 5.69863 12.876 5.69863ZM13.7822 94.1314C9.41856 94.1314 5.86856 90.5813 5.86856 86.2178C5.86856 81.8541 9.41856 78.3041 13.7822 78.3041H49.3953C49.6395 80.0377 50.0584 81.7158 50.635 83.3197H14.8715V89.1883H53.6592C54.9324 91.026 56.4412 92.6883 58.1418 94.1316H13.7822V94.1314ZM74.5725 94.3014C63.7875 94.3014 55.0135 85.5271 55.0135 74.7424C55.0135 63.9576 63.7875 55.1834 74.5725 55.1834C85.3574 55.1834 94.1314 63.9576 94.1314 74.7424C94.1314 85.5271 85.3572 94.3014 74.5725 94.3014Z" fill="black"/>
<path d="M39.218 17.1094H58.8588V22.9779H39.218V17.1094Z" fill="black"/>
<path d="M32.5835 29.8498H65.4931V35.7183H32.5835V29.8498Z" fill="black"/>
</svg>
