<svg width="100" height="100" viewBox="0 0 100 100" fill="none" xmlns="http://www.w3.org/2000/svg">
<g clip-path="url(#clip0)">
<path d="M98.0283 2.06895C95.6529 -0.306639 91.5471 -0.540233 86.1521 1.39317C82.4422 2.72324 78.5508 4.95215 76.6891 6.81387L61.7379 21.765L12.5227 14.035L0 26.5576L40.9182 42.5848L27.7803 55.7227L9.1334 56.8146L0.192188 65.7559L20.4283 75.5203L14.7592 81.1895L18.9076 85.3379L24.5691 79.6764L34.3432 99.9029L43.2822 90.9637L44.3744 72.3168L57.7328 58.9584L73.7568 99.8684L86.2793 87.3457L78.5508 38.14L93.2832 23.4074C95.1449 21.5459 97.374 17.6545 98.7041 13.9443C100.637 8.55098 100.404 4.44414 98.0283 2.06895ZM10.4895 24.3654L14.5609 20.2939L56.6055 26.8977L45.4461 38.057L10.4895 24.3654ZM80.0205 85.3078L75.9492 89.3793L62.2604 54.4311L73.4182 43.2732L80.0205 85.3078ZM93.1813 11.9652C92.0604 15.0926 90.2078 18.1865 89.1348 19.2596L38.6484 69.7463L37.5562 88.3932L36.0334 89.916L28.9627 75.2836L34.0629 70.1834L29.9145 66.035L24.8227 71.1264L10.183 64.0625L11.7041 62.5414L30.351 61.4494L80.8375 10.9625C81.9107 9.88926 85.0047 8.03731 88.132 6.91602C91.682 5.64336 93.5656 5.90313 93.8799 6.21738C94.1937 6.53145 94.4539 8.41465 93.1813 11.9652Z" fill="black"/>
</g>
<defs>
<clipPath id="clip0">
<rect width="100" height="100" fill="white"/>
</clipPath>
</defs>
</svg>
