<svg width="10" height="10" viewBox="0 0 10 10" fill="none" xmlns="http://www.w3.org/2000/svg">
<g clip-path="url(#clip0)">
<path d="M9.71315 6.08683C9.56838 6.08683 9.45105 6.20417 9.45105 6.34893V8.6762C9.45054 9.1102 9.09885 9.46198 8.66475 9.4625H1.3105C0.876396 9.46198 0.524711 9.1102 0.524199 8.6762V1.84614C0.524711 1.41204 0.876396 1.06036 1.3105 1.05984H3.63766C3.78243 1.05984 3.89976 0.942513 3.89976 0.797744C3.89976 0.652975 3.78243 0.535645 3.63766 0.535645H1.3105C0.587062 0.536464 0.000819062 1.12271 0 1.84614V8.6762C0.000819062 9.39963 0.587062 9.98588 1.3105 9.98669H8.66475C9.38819 9.98588 9.97443 9.39963 9.97525 8.6762V6.34904C9.97525 6.20427 9.85792 6.08683 9.71315 6.08683Z" fill="white"/>
<path d="M4.09839 4.70743L7.92535 0.880371L9.15958 2.11459L5.33261 5.94166L4.09839 4.70743Z" fill="white"/>
<path d="M3.47388 6.56609L4.83782 6.1883L3.85167 5.20215L3.47388 6.56609Z" fill="white"/>
<path d="M9.50078 0.232111C9.24472 -0.0233339 8.83017 -0.0233339 8.57411 0.232111L8.29614 0.51008L9.53036 1.7443L9.80833 1.46633C10.0639 1.21028 10.0639 0.795728 9.80833 0.539669L9.50078 0.232111Z" fill="white"/>
</g>
<defs>
<clipPath id="clip0">
<rect width="10" height="10" fill="white"/>
</clipPath>
</defs>
</svg>
