<svg width="99" height="124" fill="none" xmlns="http://www.w3.org/2000/svg"><path d="M58.417 45.558a16.36 16.36 0 0 0-7.867-1.9H36.317v36.224H50.55c2.742.037 5.45-.617 7.874-1.9a14.09 14.09 0 0 0 5.628-5.542c1.392-2.43 2.089-5.299 2.089-8.608v-4.121c0-3.31-.697-6.178-2.089-8.608a14.076 14.076 0 0 0-5.635-5.545zm-.536 19.433c0 2.678-.68 4.747-2.037 6.207-1.357 1.46-3.122 2.189-5.294 2.189h-6.335V50.153h6.335c2.175 0 3.94.73 5.298 2.193 1.357 1.462 2.036 3.53 2.036 6.202l-.003 6.443zM21.5 68.315L8.47 43.658H1.145v.006H.427V79.89H7.61l-.348-24.647L20.287 79.89h7.327l-.003-.007h.724V43.657h-7.181l.345 24.658zm52.371 9.329c2.616 1.857 5.924 2.785 9.924 2.785 4.41 0 7.867-.959 10.373-2.875 2.506-1.917 3.764-4.934 3.773-9.05 0-2.358-.58-4.242-1.74-5.653a10.49 10.49 0 0 0-4.15-3.115 46.11 46.11 0 0 0-6.174-1.953c-1.699-.422-3.04-.81-4.024-1.163a7.02 7.02 0 0 1-2.437-1.392 2.842 2.842 0 0 1-.95-2.19c0-1.018.508-1.836 1.525-2.453 1.016-.618 2.44-.926 4.274-.926 1.766 0 3.149.38 4.15 1.138a3.724 3.724 0 0 1 1.5 3.133v.477h7.278v-.658c0-3.52-1.216-6.17-3.648-7.947-2.432-1.777-5.565-2.666-9.398-2.666a18.377 18.377 0 0 0-6.774 1.187 10.746 10.746 0 0 0-4.824 3.613c-1.207 1.624-1.81 3.597-1.81 5.917 0 2.5.58 4.488 1.74 5.966a10.317 10.317 0 0 0 4.177 3.223 48.51 48.51 0 0 0 6.2 2.009c1.7.422 3.025.8 3.974 1.135.87.288 1.669.755 2.346 1.371a2.949 2.949 0 0 1 .926 2.245 3.565 3.565 0 0 1-1.524 2.959c-1.017.773-2.69 1.159-5.023 1.159-1.998 0-3.548-.45-4.65-1.347a4.485 4.485 0 0 1-1.65-3.669l.049-.846h-7.31l-.052 1.16c.002 3.77 1.312 6.58 3.93 8.426zM57.439 88.473a17.428 17.428 0 0 0-15.908 0 14.306 14.306 0 0 0-5.698 5.61c-1.392 2.437-2.112 5.368-2.112 8.703v5.019c0 3.324.696 6.265 2.112 8.702a14.31 14.31 0 0 0 5.698 5.611c2.134 1.145 4.588 1.657 7.954 1.657 3.366 0 5.82-.512 7.954-1.657a14.308 14.308 0 0 0 5.698-5.611c1.392-2.437 2.112-5.371 2.112-8.702v-5.03c0-3.324-.696-6.265-2.112-8.702a14.303 14.303 0 0 0-5.698-5.6zm-.442 13.108v7.407c0 2.646-.697 4.713-2.089 6.151-1.392 1.438-3.206 2.162-5.427 2.162-2.22 0-4.044-.728-5.422-2.162-1.379-1.434-2.089-3.505-2.089-6.151v-7.41c0-2.642.696-4.713 2.089-6.15 1.392-1.438 3.205-2.162 5.422-2.162 2.218 0 4.042.727 5.427 2.161C56.293 96.861 57 98.936 57 101.578l-.003.003zm39.566 2.089a11.441 11.441 0 0 0 1.392-5.57v-.316a10.926 10.926 0 0 0-1.427-5.545 10.421 10.421 0 0 0-9.12-5.28H71.473V123.2h7.846v-14.004h8.1a10.013 10.013 0 0 0 5.322-1.479 10.601 10.601 0 0 0 3.822-4.048zm-6.496-5.36a4.437 4.437 0 0 1-1.273 3.132 4.233 4.233 0 0 1-3.21 1.347H79.32V93.45h6.265a4.204 4.204 0 0 1 3.234 1.347 4.546 4.546 0 0 1 1.25 3.196v.317zm-70.238 3.028H8.085V86.941H.427v36.26h7.71v-15.104h11.692v15.104h7.654v-36.26h-7.654v14.397zm2.701-83.793c4.027-1.16 5.84-3.881 5.84-7.717v-.202c0-6.2-4.027-9.377-11.932-9.377H.427v36.057h16.666c8.41 0 12.639-3.428 12.639-10.094v-.205c0-4.832-2.503-7.501-7.202-8.462zM8.384 5.846h6.693c3.826 0 5.538 1.364 5.538 4.39v.201c0 3.227-1.51 4.64-5.489 4.64H8.384V5.846zM21.66 25.565c0 3.278-1.814 5.092-5.841 5.092H8.384V20.319h7.045c4.431 0 6.23 1.664 6.23 5.044v.202zm22.764-3.178h4.396l7.272 13.923h8.381l-8.005-15.316h.066a11.013 11.013 0 0 0 5.287-3.226c1.36-1.563 2.116-3.582 2.116-6.353v-.202c0-3.682-1.36-6.456-3.776-8.27C57.745 1.13 54.264.249 50.035.249H36.317v36.057h8.107v-13.92zm0-15.887h5.41c3.978 0 6.49 1.26 6.49 4.943v.202c0 3.429-2.411 5.193-6.49 5.193h-5.41V6.5zm26.259 13.572v6.885h13.79l5.048 9.353h8.371L78.584.482h-8.37l10.542 19.59H70.683zm24.686 98.524a1.049 1.049 0 0 0 .32-.85 1.095 1.095 0 0 0-.393-.943 1.957 1.957 0 0 0-1.17-.289h-1.622v4.292h.696v-1.834h.662l1.106 1.834h.797l-1.2-1.887c.294-.023.575-.136.804-.323zm-1.393-.23h-.786v-1.253h1.19a.914.914 0 0 1 .3.076c.087.04.164.101.222.178.063.091.093.2.087.31a.698.698 0 0 1-.083.369.593.593 0 0 1-.216.202.814.814 0 0 1-.317.087 2.06 2.06 0 0 1-.38.034l-.017-.003z" fill="#000"/><path d="M93.959 113.601a4.932 4.932 0 1 0-.03 9.864 4.932 4.932 0 0 0 .03-9.864zm0 9.52a4.581 4.581 0 0 1-4.243-2.823 4.587 4.587 0 0 1 3.334-6.257 4.579 4.579 0 0 1 4.71 1.947 4.587 4.587 0 0 1-.566 5.786 4.583 4.583 0 0 1-3.235 1.347z" fill="#000"/></svg>