<svg width="50" height="50" viewBox="0 0 50 50" fill="none" xmlns="http://www.w3.org/2000/svg">
<g>
<path fill-rule="evenodd" clip-rule="evenodd" d="M25.36 40.136H23.894C23.5509 40.1328 23.2205 40.2654 22.9747 40.5048C22.729 40.7441 22.5878 41.071 22.582 41.414V49.368C22.583 49.4521 22.6006 49.5351 22.6338 49.6124C22.6669 49.6896 22.7149 49.7596 22.7751 49.8183C22.8353 49.8769 22.9064 49.9232 22.9845 49.9544C23.0625 49.9856 23.146 50.0011 23.23 50H25.36C26.016 50.0132 26.6681 49.8954 27.2781 49.6535C27.888 49.4116 28.4436 49.0504 28.9122 48.5911C29.3808 48.1318 29.7531 47.5837 30.0073 46.9787C30.2614 46.3738 30.3923 45.7242 30.3923 45.068C30.3923 44.4119 30.2614 43.7623 30.0073 43.1573C29.7531 42.5524 29.3808 42.0042 28.9122 41.5449C28.4436 41.0857 27.888 40.7245 27.2781 40.4825C26.6681 40.2406 26.016 40.1228 25.36 40.136ZM25.36 47.443H25.206V42.693H25.36C25.6777 42.6838 25.994 42.7384 26.2902 42.8536C26.5864 42.9688 26.8565 43.1423 27.0845 43.3638C27.3124 43.5852 27.4937 43.8501 27.6174 44.1429C27.7412 44.4356 27.8049 44.7502 27.8049 45.068C27.8049 45.3859 27.7412 45.7004 27.6174 45.9932C27.4937 46.2859 27.3124 46.5509 27.0845 46.7723C26.8565 46.9938 26.5864 47.1672 26.2902 47.2824C25.994 47.3976 25.6777 47.4523 25.36 47.443ZM12.8 42.693C12.884 42.6942 12.9674 42.6788 13.0455 42.6478C13.1235 42.6167 13.1947 42.5705 13.2548 42.5119C13.315 42.4533 13.3631 42.3834 13.3962 42.3062C13.4294 42.229 13.447 42.146 13.448 42.062V40.767C13.4456 40.5975 13.3761 40.4358 13.2546 40.3175C13.1331 40.1992 12.9696 40.1339 12.8 40.136H8.945C8.77533 40.1339 8.61174 40.1991 8.49009 40.3174C8.36843 40.4357 8.29863 40.5974 8.296 40.767V48.722C8.30179 49.0653 8.44309 49.3922 8.68908 49.6317C8.93506 49.8711 9.26575 50.0035 9.609 50H12.8C12.884 50.0012 12.9674 49.9858 13.0455 49.9548C13.1235 49.9237 13.1947 49.8775 13.2548 49.8189C13.315 49.7603 13.3631 49.6904 13.3962 49.6132C13.4294 49.536 13.447 49.453 13.448 49.369V48.075C13.447 47.991 13.4294 47.908 13.3962 47.8307C13.3631 47.7535 13.3151 47.6835 13.2549 47.6248C13.1947 47.5661 13.1236 47.5199 13.0455 47.4887C12.9675 47.4575 12.884 47.442 12.8 47.443H10.921V46.343H12.8C12.884 46.3442 12.9674 46.3288 13.0455 46.2978C13.1235 46.2667 13.1947 46.2205 13.2548 46.1619C13.315 46.1033 13.3631 46.0334 13.3962 45.9562C13.4294 45.879 13.447 45.796 13.448 45.712V44.421C13.4456 44.2515 13.3761 44.0898 13.2546 43.9715C13.1331 43.8532 12.9696 43.7879 12.8 43.79H10.921V42.69H12.8V42.693ZM7.486 40.767C7.48363 40.5975 7.41405 40.4358 7.29256 40.3175C7.17106 40.1992 7.00757 40.1339 6.838 40.136H5.511C5.34143 40.1339 5.17794 40.1992 5.05644 40.3175C4.93495 40.4358 4.86537 40.5975 4.863 40.767V43.789H2.628V41.523V40.767C2.62537 40.5974 2.55557 40.4357 2.43391 40.3174C2.31226 40.1991 2.14867 40.1339 1.979 40.136H0.651C0.566785 40.1346 0.483111 40.1498 0.404776 40.1807C0.32644 40.2117 0.254984 40.2578 0.194504 40.3164C0.134024 40.375 0.0857109 40.445 0.0523337 40.5223C0.0189565 40.5997 0.00117205 40.6828 1.82266e-07 40.767V49.367C0.000910688 49.4514 0.0185026 49.5348 0.0517632 49.6124C0.0850239 49.6899 0.133297 49.7601 0.193803 49.819C0.254309 49.8778 0.325853 49.9241 0.404318 49.9552C0.482783 49.9862 0.566619 50.0015 0.651 50H1.98C2.14957 50.0022 2.31306 49.9369 2.43456 49.8186C2.55605 49.7003 2.62563 49.5386 2.628 49.369V46.346H4.862V49.369C4.86304 49.4531 4.88067 49.5362 4.91388 49.6134C4.94708 49.6907 4.99521 49.7606 5.05551 49.8193C5.1158 49.8779 5.18707 49.924 5.26524 49.955C5.3434 49.9861 5.42692 50.0014 5.511 50H6.838C6.922 50.0012 7.00541 49.9858 7.08346 49.9548C7.16151 49.9237 7.23266 49.8775 7.29285 49.8189C7.35303 49.7603 7.40107 49.6904 7.43422 49.6132C7.46736 49.536 7.48496 49.453 7.486 49.369V41.523V40.767ZM30.611 29.483H29.194C29.11 29.4818 29.0265 29.4972 28.9484 29.5283C28.8703 29.5594 28.7991 29.6055 28.7388 29.6641C28.6785 29.7227 28.6304 29.7926 28.5971 29.8698C28.5639 29.947 28.5462 30.03 28.545 30.114V38.714C28.546 38.7982 28.5637 38.8813 28.5969 38.9586C28.6301 39.0359 28.6782 39.1059 28.7384 39.1646C28.7987 39.2233 28.87 39.2696 28.9482 39.3007C29.0263 39.3318 29.1099 39.3472 29.194 39.346H30.611C30.695 39.3471 30.7785 39.3316 30.8565 39.3004C30.9346 39.2692 31.0057 39.2229 31.0659 39.1643C31.1261 39.1056 31.1741 39.0356 31.2072 38.9584C31.2404 38.8811 31.258 38.7981 31.259 38.714V30.114C31.2566 29.9445 31.1871 29.7828 31.0656 29.6645C30.9441 29.5462 30.7806 29.4809 30.611 29.483ZM18.767 32.04C18.851 32.0411 18.9345 32.0256 19.0125 31.9944C19.0906 31.9632 19.1617 31.9169 19.2219 31.8583C19.2821 31.7996 19.3301 31.7296 19.3632 31.6524C19.3964 31.5751 19.414 31.4921 19.415 31.408V30.115C19.4126 29.9455 19.3431 29.7838 19.2216 29.6655C19.1001 29.5471 18.9366 29.4819 18.767 29.484H14.909C14.825 29.4828 14.7415 29.4982 14.6634 29.5293C14.5853 29.5604 14.5141 29.6065 14.4538 29.6651C14.3935 29.7237 14.3454 29.7936 14.3121 29.8708C14.2789 29.948 14.2612 30.031 14.26 30.115V38.07C14.2658 38.4132 14.4071 38.7402 14.6531 38.9797C14.8991 39.2191 15.2298 39.3515 15.573 39.348H18.767C18.851 39.3491 18.9345 39.3336 19.0125 39.3024C19.0906 39.2712 19.1617 39.2249 19.2219 39.1663C19.2821 39.1076 19.3301 39.0376 19.3632 38.9604C19.3964 38.8831 19.414 38.8001 19.415 38.716V37.422C19.4126 37.2524 19.3431 37.0906 19.2216 36.9721C19.1001 36.8536 18.9367 36.7882 18.767 36.79H16.885V35.69H18.766C18.9356 35.6922 19.0991 35.6269 19.2206 35.5086C19.3421 35.3903 19.4116 35.2286 19.414 35.059V33.769C19.413 33.685 19.3954 33.602 19.3622 33.5247C19.3291 33.4475 19.2811 33.3775 19.2209 33.3188C19.1607 33.2601 19.0896 33.2139 19.0115 33.1827C18.9335 33.1515 18.85 33.136 18.766 33.137H16.885V32.037H18.766L18.767 32.04ZM41.35 29.483H37.492C37.3223 29.4809 37.1587 29.5461 37.0371 29.6644C36.9154 29.7827 36.8456 29.9444 36.843 30.114V38.069C36.8488 38.4123 36.9901 38.7392 37.2361 38.9787C37.4821 39.2181 37.8128 39.3505 38.156 39.347H41.35C41.4342 39.3484 41.5179 39.333 41.5961 39.302C41.6744 39.2709 41.7458 39.2247 41.8062 39.166C41.8666 39.1073 41.9148 39.0372 41.948 38.9598C41.9813 38.8824 41.999 38.7993 42 38.715V37.422C41.9976 37.2524 41.9281 37.0906 41.8066 36.9721C41.6852 36.8536 41.5217 36.7882 41.352 36.79H39.469V35.69H41.35C41.5194 35.6927 41.683 35.6281 41.8048 35.5104C41.9266 35.3927 41.9968 35.2314 42 35.062V33.769C41.999 33.685 41.9814 33.602 41.9482 33.5247C41.9151 33.4475 41.8671 33.3775 41.8069 33.3188C41.7467 33.2601 41.6756 33.2139 41.5975 33.1827C41.5195 33.1515 41.4361 33.136 41.352 33.137H39.469V32.037H41.35C41.5196 32.0397 41.6833 31.975 41.8052 31.857C41.927 31.7391 41.9971 31.5776 42 31.408V30.115C41.999 30.0308 41.9813 29.9476 41.948 29.8703C41.9148 29.7929 41.8666 29.7228 41.8062 29.6641C41.7458 29.6054 41.6744 29.5592 41.5961 29.5281C41.5179 29.497 41.4342 29.4817 41.35 29.483ZM5.013 29.514H2.9C2.14161 29.5039 1.41021 29.7952 0.866455 30.3239C0.3227 30.8527 0.0110626 31.5757 1.82266e-07 32.334C-0.000134979 32.7064 0.0749032 33.0749 0.220617 33.4175C0.366332 33.7602 0.579722 34.0699 0.848 34.328L2.96 36.373C2.98459 36.3969 3.00408 36.4255 3.01732 36.4572C3.03055 36.4888 3.03725 36.5228 3.037 36.557C3.03569 36.6279 3.00649 36.6953 2.95575 36.7447C2.90502 36.7942 2.83683 36.8216 2.766 36.821H0.651C0.566785 36.8196 0.483111 36.8348 0.404776 36.8657C0.32644 36.8967 0.254984 36.9428 0.194504 37.0014C0.134024 37.06 0.0857109 37.13 0.0523337 37.2073C0.0189565 37.2847 0.00117205 37.3678 1.82266e-07 37.452V38.746C0.00237151 38.9156 0.071946 39.0773 0.193444 39.1956C0.314942 39.3139 0.478429 39.3792 0.648 39.377H2.766C3.52439 39.3872 4.25579 39.0959 4.79954 38.5671C5.3433 38.0384 5.65494 37.3154 5.666 36.557C5.66694 36.1837 5.5923 35.814 5.44656 35.4703C5.30082 35.1266 5.08701 34.8159 4.818 34.557L2.705 32.519C2.68032 32.4952 2.66076 32.4666 2.64752 32.435C2.63428 32.4033 2.62764 32.3693 2.628 32.335C2.62852 32.2998 2.63597 32.2651 2.64992 32.2328C2.66388 32.2005 2.68406 32.1712 2.70932 32.1467C2.73457 32.1222 2.76441 32.1029 2.79713 32.0899C2.82985 32.0769 2.8648 32.0705 2.9 32.071H5.013C5.11735 32.072 5.22041 32.0479 5.31351 32.0007C5.4066 31.9535 5.48702 31.8847 5.548 31.8C5.55703 31.7875 5.56538 31.7745 5.573 31.761L5.581 31.748C5.58434 31.7426 5.58735 31.7369 5.59 31.731C5.63583 31.6437 5.65984 31.5466 5.66 31.448V30.145C5.65763 29.9756 5.58819 29.8141 5.46691 29.6958C5.34563 29.5775 5.1824 29.5122 5.013 29.514ZM12.802 29.483H11.474C11.3044 29.4809 11.1409 29.5462 11.0194 29.6645C10.8979 29.7828 10.8284 29.9445 10.826 30.114V33.314L8.919 30.114C8.76979 29.869 8.5453 29.6789 8.27909 29.572C8.01287 29.4651 7.71921 29.4472 7.442 29.521C7.1665 29.5904 6.92178 29.7492 6.74609 29.9725C6.57041 30.1957 6.47367 30.4709 6.471 30.755V38.709C6.47204 38.7931 6.48963 38.8761 6.52277 38.9534C6.5559 39.0306 6.60392 39.1006 6.66409 39.1593C6.72427 39.2179 6.79541 39.2642 6.87347 39.2954C6.95152 39.3266 7.03495 39.3421 7.119 39.341H8.448C8.61741 39.3442 8.78118 39.2802 8.9034 39.1628C9.02562 39.0455 9.09632 38.8844 9.1 38.715V37.961V35.511C10.039 37.086 11.006 38.711 11.006 38.711C11.1551 38.9562 11.3796 39.1464 11.6458 39.2533C11.9121 39.3602 12.2058 39.378 12.483 39.304C12.7586 39.2348 13.0034 39.0761 13.1791 38.8528C13.3548 38.6295 13.4515 38.3542 13.454 38.07V30.115C13.453 30.0305 13.4352 29.947 13.4017 29.8693C13.3682 29.7917 13.3196 29.7214 13.2588 29.6627C13.198 29.6039 13.1261 29.5578 13.0474 29.5269C12.9686 29.4961 12.8845 29.4812 12.8 29.483H12.802ZM27.915 38.53L25.251 30.498C25.1589 30.2348 24.9872 30.0067 24.7598 29.8454C24.5323 29.684 24.2604 29.5973 23.9815 29.5973C23.7026 29.5973 23.4307 29.684 23.2032 29.8454C22.9758 30.0067 22.8041 30.2348 22.712 30.498L20.048 38.53C20.029 38.5902 20.0192 38.6529 20.019 38.716C20.0214 38.8856 20.0909 39.0473 20.2124 39.1656C20.3339 39.2839 20.4974 39.3492 20.667 39.347H22.109C22.2473 39.3482 22.3823 39.305 22.4942 39.2239C22.6061 39.1427 22.6891 39.0278 22.731 38.896C23.115 37.739 23.554 36.416 23.983 35.122C24.413 36.417 24.851 37.74 25.235 38.896C25.2769 39.0278 25.3599 39.1427 25.4718 39.2239C25.5837 39.305 25.7187 39.3482 25.857 39.347H27.3C27.4697 39.3492 27.6333 39.284 27.7549 39.1657C27.8766 39.0474 27.9464 38.8857 27.949 38.716C27.9468 38.6527 27.9353 38.59 27.915 38.53ZM21.951 49.183L19.287 41.151C19.1948 40.8876 19.0231 40.6593 18.7954 40.4978C18.5678 40.3363 18.2956 40.2495 18.0165 40.2495C17.7374 40.2495 17.4652 40.3363 17.2376 40.4978C17.0099 40.6593 16.8382 40.8876 16.746 41.151L14.082 49.18C14.0627 49.2402 14.053 49.3029 14.053 49.366C14.0538 49.4502 14.0711 49.5333 14.1041 49.6107C14.1371 49.6881 14.1849 49.7583 14.245 49.8172C14.3051 49.8761 14.3762 49.9225 14.4543 49.9539C14.5324 49.9853 14.6159 50.001 14.7 50H16.142C16.2803 50.0012 16.4153 49.958 16.5272 49.8769C16.6391 49.7957 16.7221 49.6808 16.764 49.549C17.148 48.392 18.016 45.672 18.016 45.672C18.016 45.672 18.885 48.392 19.268 49.549C19.3097 49.6809 19.3927 49.7959 19.5047 49.8771C19.6166 49.9582 19.7517 50.0013 19.89 50H21.332C21.416 50.0012 21.4994 49.9858 21.5775 49.9548C21.6555 49.9237 21.7267 49.8775 21.7868 49.8189C21.847 49.7603 21.8951 49.6904 21.9282 49.6132C21.9614 49.536 21.979 49.453 21.98 49.369C21.98 49.3059 21.9703 49.2432 21.951 49.183ZM49.971 38.53L48.911 35.335C48.911 35.319 48.901 35.304 48.895 35.288L48.883 35.252C48.8145 35.0743 48.7072 34.9141 48.569 34.783C49.0552 34.2699 49.3261 33.5899 49.326 32.883V32.3C49.3152 31.5448 49.0053 30.8246 48.4643 30.2974C47.9233 29.7703 47.1953 29.4792 46.44 29.488H43.46C43.3759 29.4868 43.2925 29.5022 43.2144 29.5333C43.1363 29.5644 43.0651 29.6105 43.0048 29.6691C42.9445 29.7277 42.8964 29.7976 42.8631 29.8748C42.8299 29.952 42.8122 30.035 42.811 30.119V38.719C42.812 38.8031 42.8296 38.8861 42.8628 38.9634C42.8959 39.0406 42.9439 39.1106 43.0041 39.1693C43.0643 39.2279 43.1354 39.2742 43.2135 39.3054C43.2915 39.3366 43.375 39.3521 43.459 39.351H44.787C44.9568 39.3532 45.1206 39.2878 45.2423 39.1693C45.3639 39.0508 45.4336 38.8889 45.436 38.719V35.693H46.228C46.636 36.924 47.097 38.311 47.291 38.893C47.3328 39.0246 47.4157 39.1394 47.5274 39.2206C47.6391 39.3017 47.7739 39.345 47.912 39.344H49.354C49.5227 39.3456 49.6852 39.2806 49.8062 39.163C49.9272 39.0454 49.9968 38.8847 50 38.716C49.9999 38.6529 49.9901 38.5902 49.971 38.53ZM45.433 32.04H46.433C46.5015 32.0392 46.5676 32.0656 46.6167 32.1134C46.6658 32.1612 46.6939 32.2265 46.695 32.295V32.881C46.6946 32.915 46.6875 32.9486 46.6741 32.9798C46.6607 33.011 46.6413 33.0393 46.617 33.063C46.5926 33.0866 46.5638 33.1053 46.5323 33.1178C46.5007 33.1304 46.467 33.1366 46.433 33.136H45.433V32.036V32.04ZM36.249 38.53L35.189 35.335C35.189 35.319 35.179 35.304 35.173 35.288L35.161 35.252C35.0864 35.0606 34.9675 34.8895 34.814 34.7529C34.6605 34.6162 34.4768 34.5179 34.278 34.466L34.456 33.928L35.656 30.308C35.6753 30.2479 35.6851 30.1852 35.685 30.122C35.6826 29.9525 35.6131 29.7908 35.4916 29.6725C35.3701 29.5541 35.2066 29.4889 35.037 29.491H33.593C33.4549 29.4899 33.32 29.5331 33.2083 29.6143C33.0965 29.6955 33.0137 29.8103 32.972 29.942L31.531 34.285C31.531 34.285 31.531 34.285 31.531 34.29C31.5308 34.2917 31.5308 34.2934 31.531 34.295C31.5278 34.304 31.5261 34.3135 31.526 34.323C31.526 34.3496 31.5365 34.375 31.5553 34.3937C31.574 34.4125 31.5995 34.423 31.626 34.423H32.082L33.565 38.9C33.6067 39.0317 33.6895 39.1466 33.8013 39.2278C33.913 39.3089 34.0479 39.3521 34.186 39.351H35.628C35.7976 39.3532 35.9611 39.2879 36.0826 39.1696C36.2041 39.0513 36.2736 38.8896 36.276 38.72C36.2773 38.6557 36.2681 38.5915 36.249 38.53ZM0.231 22.1C0.251532 22.5758 0.459743 23.024 0.810041 23.3466C1.16034 23.6691 1.62418 23.8397 2.1 23.821H49.781V19.849H0.231V22.1ZM47.889 4.28603C47.5061 4.27786 47.1299 4.38649 46.8103 4.59747C46.4907 4.80845 46.2429 5.11176 46.1 5.46703C44.815 7.84703 45.222 9.61503 40.144 9.00003C35.373 8.42403 35.513 6.27503 33.98 4.34003C34.3413 3.87121 34.5824 3.32111 34.6823 2.73771C34.7821 2.15431 34.7378 1.55534 34.553 0.993034C34.113 -0.321966 33.362 -0.181966 32.074 0.535034L27.508 2.80003L27.291 2.38103C27.2582 2.31992 27.203 2.2739 27.137 2.25264C27.071 2.23138 26.9993 2.23654 26.937 2.26703L24.946 3.24603C24.9155 3.26063 24.8881 3.28119 24.8657 3.3065C24.8432 3.33181 24.826 3.36136 24.8151 3.3934C24.8042 3.42545 24.7998 3.45936 24.8022 3.49312C24.8046 3.52689 24.8137 3.55984 24.829 3.59003L25.051 4.02003L23.973 4.55603L23.753 4.13103C23.7199 4.07052 23.6647 4.02516 23.5988 4.00447C23.533 3.98377 23.4618 3.98935 23.4 4.02003L21.409 5.00003C21.3784 5.01474 21.3511 5.03539 21.3286 5.06079C21.3061 5.08619 21.2889 5.11582 21.278 5.14795C21.2671 5.18008 21.2627 5.21406 21.2651 5.2479C21.2675 5.28174 21.2767 5.31477 21.292 5.34503L21.517 5.78003L20.438 6.31603L20.223 5.90003C20.19 5.83909 20.1348 5.79329 20.0688 5.77222C20.0028 5.75115 19.9312 5.75646 19.869 5.78703L17.879 6.76503C17.8483 6.77963 17.8209 6.80023 17.7983 6.82561C17.7758 6.85099 17.7585 6.88065 17.7476 6.91281C17.7367 6.94498 17.7323 6.97901 17.7348 7.01288C17.7373 7.04676 17.7465 7.07979 17.762 7.11003L17.983 7.53603L16.9 8.06803L16.69 7.66203C16.6574 7.60074 16.6022 7.55455 16.5361 7.53326C16.47 7.51198 16.3982 7.51728 16.336 7.54803L14.346 8.52603C14.3155 8.54064 14.2881 8.56119 14.2657 8.5865C14.2432 8.61181 14.226 8.64136 14.2151 8.6734C14.2042 8.70545 14.1998 8.73936 14.2022 8.77312C14.2046 8.80689 14.2137 8.83984 14.229 8.87003L14.445 9.28603L12.445 10.277C11.345 10.957 12.374 11.447 10.804 11.905H10.877C7.448 13.04 5.058 13.9 2.777 14.627C-0.0779998 15.54 0.22 17.746 0.22 18.909H49.1C49.1884 18.9104 49.2762 18.8942 49.3584 18.8615C49.4406 18.8289 49.5155 18.7803 49.5788 18.7186C49.6422 18.6569 49.6927 18.5833 49.7276 18.5021C49.7625 18.4208 49.781 18.3335 49.782 18.245V6.02803C49.7612 5.54627 49.5503 5.0924 49.1955 4.76587C48.8406 4.43934 48.3708 4.26679 47.889 4.28603ZM16.465 16.486C16.2714 16.5551 16.0584 16.5457 15.8716 16.46C15.6848 16.3742 15.5389 16.2189 15.465 16.027L14.383 13.094C14.3487 12.9992 14.3337 12.8985 14.339 12.7979C14.3442 12.6972 14.3695 12.5986 14.4133 12.5078C14.4572 12.4171 14.5188 12.336 14.5945 12.2694C14.6702 12.2028 14.7584 12.152 14.854 12.12C15.0476 12.051 15.2606 12.0603 15.4474 12.1461C15.6342 12.2318 15.7801 12.3872 15.854 12.579L16.936 15.512C16.9701 15.6068 16.985 15.7074 16.9797 15.8079C16.9744 15.9085 16.9491 16.007 16.9052 16.0976C16.8613 16.1883 16.7998 16.2692 16.7242 16.3357C16.6486 16.4023 16.5605 16.453 16.465 16.485V16.486ZM25.312 16.508C25.1184 16.5776 24.9053 16.5685 24.7183 16.4827C24.5313 16.3969 24.3855 16.2412 24.312 16.049L22.179 10.268C22.1449 10.1733 22.13 10.0727 22.1353 9.97213C22.1406 9.87157 22.1659 9.77308 22.2098 9.68244C22.2537 9.59181 22.3152 9.51085 22.3908 9.44432C22.4664 9.37779 22.5545 9.32704 22.65 9.29503C22.8436 9.22546 23.0567 9.23456 23.2437 9.32037C23.4307 9.40619 23.5765 9.56188 23.65 9.75403L25.783 15.535C25.8169 15.6298 25.8316 15.7303 25.8262 15.8308C25.8208 15.9313 25.7953 16.0297 25.7514 16.1203C25.7074 16.2108 25.6458 16.2917 25.5702 16.3581C25.4946 16.4245 25.4065 16.4751 25.311 16.507L25.312 16.508ZM36.398 15.978C36.2289 16.2364 35.966 16.4189 35.6648 16.487C35.3637 16.5551 35.0478 16.5035 34.784 16.343C34.6162 16.2427 34.4771 16.1006 34.3804 15.9306C34.2837 15.7607 34.2326 15.5686 34.232 15.373C34.2325 15.1602 34.2939 14.952 34.409 14.773L34.99 13.866C32.5363 12.8327 30.5062 10.9968 29.232 8.65903C29.1257 8.48459 29.0693 8.28432 29.069 8.08003C29.0697 7.87966 29.1234 7.68305 29.2248 7.5102C29.3261 7.33736 29.4715 7.19445 29.646 7.09603C29.9127 6.94286 30.2283 6.89895 30.5266 6.97353C30.825 7.04812 31.0828 7.23539 31.246 7.49603C31.8384 8.63751 32.6631 9.64247 33.6669 10.4464C34.6708 11.2503 35.8316 11.8354 37.075 12.164L38.567 12.581L36.398 15.978Z" fill="#222222" />
</g>
</svg>
