<?xml version="1.0" encoding="UTF-8"?>
<svg width="153px" height="90px" viewBox="0 0 153 90" version="1.1" xmlns="http://www.w3.org/2000/svg" xmlns:xlink="http://www.w3.org/1999/xlink">
	<!-- Generator: Sketch 64 (93537) - https://sketch.com -->
	<title>TSUM_Logo_RU_1_White Copy</title>
	<desc>Created with Sketch.</desc>
	<defs>
		<polygon id="path-1" points="0.06 0 152.214 0 152.214 89.94 0.06 89.94"></polygon>
	</defs>
	<g id="Page-1" stroke="none" stroke-width="1" fill="none" fill-rule="evenodd">
		<g id="iPhone-11-Pro" transform="translate(-188.000000, -90.000000)">
			<g id="TSUM_Logo_RU_1_White-Copy" transform="translate(188.000000, 90.000000)">
				<g id="Group-3">
					<mask id="mask-2" fill="white">
						<use xlink:href="#path-1"></use>
					</mask>
					<g id="Clip-2"></g>
					<polygon id="Fill-1" fill="#000002" mask="url(#mask-2)" points="0.06 89.94 152.214 89.94 152.214 0 0.06 0"></polygon>
				</g>
				<path d="M149.812,2.401 L2.402,2.401 L2.402,87.599 L149.812,87.599 L149.812,2.401 Z" id="Fill-4" stroke="#F94F0D" stroke-width="2" fill="#F94F0D"></path>
				<polygon id="Fill-5" fill="#FFFFFE" points="6.804 83.197 145.41 83.197 145.41 6.804 6.804 6.804"></polygon>
				<g id="Group" transform="translate(19.000000, 19.000000)">
					<g id="Fill-6" fill="#000002">
						<polygon points="36.119 34.6358108 36.67 34.6358108 36.67 1.14262953e-13 36.119 1.14262953e-13"></polygon>
						<polygon id="Fill-7" points="76.4522 34.6651351 77.0032 34.6651351 77.0032 3.02460759e-13 76.4522 3.02460759e-13"></polygon>
						<path d="M90.24335,7.80027027 L87.6014,7.80027027 L87.6014,6.87040541 L94.67795,6.87040541 L100.567,23.2589189 L106.34965,6.87040541 L113.3426,6.87040541 L113.3426,7.80027027 L110.69875,7.80027027 L110.69875,28.4966216 L113.3426,28.4966216 L113.3426,29.4274324 L103.95375,29.4274324 L103.95375,28.4966216 L106.7629,28.4966216 L106.7629,8.9827027 L106.7059,8.9827027 L99.7956,28.4966216 L98.25565,28.4966216 L91.20855,9.34972973 L91.1544,9.34972973 L91.1544,25.9331081 C91.1544,27.9631081 91.4299,28.4966216 93.024,28.4966216 L94.2077,28.4966216 L94.2077,29.4274324 L87.6014,29.4274324 L87.6014,28.4966216 L88.3728,28.4966216 C89.9688,28.4966216 90.24335,27.9631081 90.24335,25.9331081 L90.24335,7.80027027" id="Fill-8"></path>
						<path d="M24.33805,7.80027027 L24.33805,6.87040541 L14.94825,6.87040541 L14.94825,7.80027027 L17.6738,7.80027027 L17.6738,28.4966216 L6.6633,28.4966216 L6.6633,7.80027027 L9.38885,7.80027027 L9.38885,6.87040541 L-1.50190971e-13,6.87040541 L-1.50190971e-13,7.80027027 L2.72555,7.80027027 L2.72555,28.4966216 L-1.50190971e-13,28.4966216 L-1.50190971e-13,29.4274324 L22.0229,29.4274324 C23.0964,29.4274324 23.9514,30.6382432 23.9514,31.5662162 C23.9514,31.5964865 23.9514,31.5964865 23.9514,31.622973 L24.33805,31.622973 L24.33805,28.4966216 L21.58495,28.4966216 L21.58495,7.80027027 L24.33805,7.80027027" id="Fill-9"></path>
						<path d="M59.63055,6.87040541 L59.63055,7.82864865 L62.1908,7.82864865 L54.31815,23.7952703 L48.92215,11.1233784 C48.3702,9.88324324 48.12415,9.23527027 48.12415,8.645 C48.12415,8.13608108 48.5089,7.82864865 49.4988,7.82864865 L50.6559,7.82864865 L50.6559,6.87040541 L44.0211,6.87040541 L44.0211,7.82864865 L45.2884,7.82864865 C46.4455,7.82864865 46.80175,8.61662162 47.18745,9.51905405 L53.79375,24.8651351 L51.94885,28.6385135 L49.47315,28.6385135 L49.47315,29.5683784 L58.8886,29.5683784 L58.8886,28.6385135 L56.3274,28.6385135 L66.59595,7.82864865 L69.0726,7.82864865 L69.0726,6.87040541 L59.63055,6.87040541" id="Fill-20"></path>
					</g>
					<polyline id="Fill-10" fill="#000002" points="4.379 45.97 2.525 45.97 2.525 45.434 6.842 45.434 6.842 45.97 5.016 45.97 5.016 49.902 4.379 49.902 4.379 45.97"></polyline>
					<path d="M15.419,46.626 C15.361,46.001 14.754,45.823 14.058,45.823 C13.42,45.823 12.898,46.149 12.898,46.626 C12.898,46.865 13.044,47.133 13.594,47.221 L15.187,47.489 C15.914,47.608 16.231,48.026 16.231,48.59 C16.231,49.484 15.449,50.019 14.174,50.019 C12.928,50.019 12.205,49.543 12.147,48.561 L12.812,48.561 C12.812,49.156 13.362,49.513 14.204,49.513 C15.101,49.513 15.593,49.156 15.593,48.651 C15.593,47.43 12.263,48.532 12.263,46.685 C12.263,45.823 12.986,45.315 14.174,45.315 C15.073,45.315 16.03,45.584 16.088,46.626 L15.419,46.626" id="Fill-11" fill="#000002"></path>
					<path d="M25.504,45.434 L26.142,45.434 L26.142,48.084 C26.142,49.364 25.302,50.019 24.115,50.019 C22.925,50.019 22.085,49.364 22.085,48.084 L22.085,45.434 L22.723,45.434 L22.723,48.145 C22.723,48.978 23.215,49.513 24.115,49.513 C25.012,49.513 25.504,48.978 25.504,48.145 L25.504,45.434" id="Fill-12" fill="#000002"></path>
					<polyline id="Fill-13" fill="#000002" points="32.894 45.882 32.867 45.882 32.867 49.902 32.256 49.902 32.256 45.434 33.243 45.434 35.156 49.364 37.067 45.434 38.083 45.434 38.083 49.902 37.445 49.902 37.445 45.882 35.503 49.902 34.836 49.902 32.894 45.882"></polyline>
					<polyline id="Fill-14" fill="#000002" points="51.877 45.882 51.846 45.882 51.846 49.902 51.239 49.902 51.239 45.434 52.224 45.434 54.136 49.364 56.019 45.434 57.035 45.434 57.035 49.902 56.397 49.902 56.397 45.882 54.483 49.902 53.818 49.902 51.877 45.882"></polyline>
					<path d="M65.381,45.315 C67.205,45.315 67.844,46.596 67.844,47.667 C67.844,48.739 67.205,50.019 65.381,50.019 C63.555,50.019 62.945,48.739 62.945,47.667 C62.945,46.596 63.555,45.315 65.381,45.315 Z M65.381,49.513 C66.452,49.513 67.178,48.769 67.178,47.667 C67.178,46.566 66.452,45.823 65.381,45.823 C64.336,45.823 63.613,46.566 63.613,47.667 C63.613,48.769 64.336,49.513 65.381,49.513 L65.381,49.513 Z" id="Fill-15" fill="#000002"></path>
					<path d="M76.799,46.626 C76.742,46.001 76.104,45.823 75.407,45.823 C74.798,45.823 74.279,46.149 74.279,46.626 C74.279,46.865 74.422,47.133 74.944,47.221 L76.567,47.489 C77.263,47.608 77.581,48.026 77.581,48.59 C77.581,49.484 76.827,50.019 75.524,50.019 C74.306,50.019 73.582,49.543 73.494,48.561 L74.162,48.561 C74.19,49.156 74.74,49.513 75.551,49.513 C76.479,49.513 76.971,49.156 76.971,48.651 C76.971,47.43 73.64,48.532 73.64,46.685 C73.64,45.823 74.333,45.315 75.524,45.315 C76.421,45.315 77.379,45.584 77.465,46.626 L76.799,46.626" id="Fill-16" fill="#000002"></path>
					<path d="M87.751,48.651 C87.608,49.632 86.708,50.019 85.636,50.019 C84.101,50.019 83.377,48.888 83.377,47.667 C83.377,46.596 83.986,45.315 85.81,45.315 C86.854,45.315 87.636,45.851 87.694,46.596 L86.998,46.596 C86.884,46.032 86.363,45.823 85.783,45.823 C84.766,45.823 84.043,46.418 84.043,47.667 C84.043,48.917 84.766,49.513 85.783,49.513 C86.363,49.513 86.94,49.246 87.056,48.651 L87.751,48.651" id="Fill-17" fill="#000002"></path>
					<path d="M95.866,45.315 C97.693,45.315 98.301,46.596 98.301,47.667 C98.301,48.739 97.693,50.019 95.866,50.019 C94.042,50.019 93.405,48.739 93.405,47.667 C93.405,46.596 94.042,45.315 95.866,45.315 Z M95.866,49.513 C96.908,49.513 97.635,48.769 97.635,47.667 C97.635,46.566 96.908,45.823 95.866,45.823 C94.793,45.823 94.07,46.566 94.07,47.667 C94.07,48.769 94.793,49.513 95.866,49.513 L95.866,49.513 Z" id="Fill-18" fill="#000002"></path>
					<polyline id="Fill-19" fill="#000002" points="110.413 45.434 111.081 45.434 109.546 49.902 108.676 49.902 107.369 45.97 107.342 45.97 106.009 49.902 105.139 49.902 103.633 45.434 104.299 45.434 105.574 49.364 105.605 49.364 106.936 45.434 107.776 45.434 109.11 49.364 110.413 45.434"></polyline>
					<polygon id="Fill-21" fill="#F94F0D" points="42.589 50.079 47.195 50.079 47.195 45.377 42.589 45.377"></polygon>
				</g>
			</g>
		</g>
	</g>
</svg>