<svg id="Слой_2" data-name="Слой 2" xmlns="http://www.w3.org/2000/svg" viewBox="0 0 1098.63 852.88"><defs><style>.cls-1,.cls-2{fill:none;}.cls-1,.cls-3{stroke:#20326c;stroke-miterlimit:10;}.cls-3{fill:#22bce8;stroke-width:15px;}.cls-4{fill:#455d8f;}.cls-5{fill:#3c84e7;}.cls-6{fill:#20326c;}.cls-7{fill:#2c59a3;}</style></defs><title>cactusweb_logo_no_text</title><path class="cls-1" d="M77-1.49" transform="translate(5.24 4.5)"/><line class="cls-2" x1="455.2" y1="35.07" x2="362.42" y2="349.22"/><line class="cls-2" x1="224.17" y1="93.13" x2="253.94" y2="274.37"/><polygon class="cls-3" points="1089.89 16.99 964.1 838.38 732.38 838.38 547.69 235.12 372.07 838.38 134.3 838.38 8.73 16.99 242.18 16.99 308.31 448.89 436.8 7.5 656 7.5 790.46 446.61 856.23 16.99 1089.89 16.99"/><path class="cls-4" d="M980.44,55.17h-94.5a7.75,7.75,0,0,1-7.8-7.72V47.4a7.75,7.75,0,0,1,7.75-7.77H980.4a7.77,7.77,0,0,1,7.77,7.77h0A7.76,7.76,0,0,1,980.44,55.17Z" transform="translate(5.24 4.5)"/><path class="cls-4" d="M166.24,809a7.65,7.65,0,0,1-7.55-6.69L39.38,48.63a7.87,7.87,0,0,1,6.32-9.15h0a8.14,8.14,0,0,1,1.21-.13H211.34a8,8,0,0,1,0,16H56.21L173.79,799.9a7.84,7.84,0,0,1-6.41,9.05h-1.14Z" transform="translate(5.24 4.5)"/><path class="cls-4" d="M214,803.1c-.22-.65-.43-1.51-.65-2.16-.65-4.1,1.29-7.55,4.53-7.55l127.3.21c3.23,0,6.47,3.46,7.12,7.56s-1.3,7.55-4.53,7.55l-127.3-.22A8.45,8.45,0,0,1,214,803.1Z" transform="translate(5.24 4.5)"/><path class="cls-4" d="M357.14,352.27a7.32,7.32,0,0,1-7.35-9.45v-.05L442.57,28.63A7.51,7.51,0,1,1,457,32.72h0L364.29,346.87A7.21,7.21,0,0,1,357.14,352.27Z" transform="translate(5.24 4.5)"/><path class="cls-4" d="M248.81,277.42a7.24,7.24,0,0,1-7.33-6.26l-30-181.23a7.53,7.53,0,0,1,6.24-8.63h0a7.53,7.53,0,0,1,8.63,6.22v0l29.78,181a7.55,7.55,0,0,1-6.26,8.63A6.5,6.5,0,0,1,248.81,277.42Z" transform="translate(5.24 4.5)"/><path class="cls-4" d="M929.14,808.68H749.22a7.56,7.56,0,0,1,0-15.11H922.69L1037.25,46a7.54,7.54,0,1,1,14.89,2.37L936.71,802.2A7.65,7.65,0,0,1,929.14,808.68Z" transform="translate(5.24 4.5)"/><path class="cls-5" d="M351.73,374.79H291.14c-9.92,0-23.3,6.47-23.3,23.73V534.45c1.94,15.32,4.75,19,15.32,26.54,10.14,7.12,18.55,7.55,29.34,7.55,9.06,0,72.71,0,91.91-.43-11,.21,17.7-1.3,27,5.61,16,11.87,14.24,37.76,14.24,70.12,0,66.24-.21,150.17,0,195.91,58.91,0,195.48.43,195.48.43V523s0-43.8,36.89-44.23c37.76-.22,102.06-.65,102.06-.65s39.7,1.94,39.7-39.48-.87-176.49-.87-176.49,1.08-24.38-29.12-24.38H748.94s-30.86-2-30.86,22.87V361.2s-1.51,21.36-22.22,21.36H659.4s-18.77-.22-18.77-20.93-.22-218.78-.22-218.78,1.08-28.26-28-28.26H479.24S446,112.22,446,142.85c-.44,28.7.21,310.69,0,309.83,0,0,0,25.24-17,25.24H394.23s-21.36,1.94-22-29.12V397.66C372,381.26,361.22,375.22,351.73,374.79Z" transform="translate(5.24 4.5)"/><path class="cls-6" d="M649.26,848.38h-8S504.69,848,445.79,848h-8v-8c-.22-37.32-.22-99.89,0-157.5V635.21c.21-26.11.21-46.82-11-55.23-3.45-2.59-15.53-3.89-22-3.89h0c-17.48.22-70.13.43-91.92.43-12.08,0-22.22-.64-34.09-9.06S262.39,553.22,260,535.53v-137c0-20.71,15.75-31.5,31.29-31.71h61.08c12.94.65,28.05,9.06,28.05,31.5v50.92c.21,8.63,2.15,14.88,5.82,18.34a10.82,10.82,0,0,0,7.55,3h35.39c1.51,0,5,0,7.33-7.12a35.3,35.3,0,0,0,1.73-10.14V446.2h0V341.35c0-80.91-.22-181.45,0-197.85,0-10.79,3.45-19.63,10.35-26.11,11.44-10.57,28.27-10.14,31.07-10.14H612.58c11,0,19.85,3.45,26.32,9.93a37.35,37.35,0,0,1,9.71,26.54s.22,198.06.22,218.56c0,11.22,7.55,12.73,11,12.94h36.46c12.3,0,14-11.65,14.24-14V261.3a28.06,28.06,0,0,1,8.85-21.36c11.22-10.57,28.69-9.71,30.64-9.49h40.12q18.45,0,28.48,10.36a31.89,31.89,0,0,1,8.63,22.43c0,.87.86,135.28.86,176.28,0,14.67-4.53,26.54-13.38,35C800.73,487.85,780.86,487,780,487l-101.62.65c-27.84.22-28.92,32.58-28.92,36.25v324.5ZM453.78,832c52.86,0,150.82.22,179.51.43V523.23c0-17.91,9.28-51.78,44.88-52.21l102.05-.65c.43,0,14.46.43,23.52-8.2,5.39-5.18,8.2-13.16,8.2-23.3,0-40.78-.86-175.19-.86-176.49a17.25,17.25,0,0,0-4.32-11.22c-3.45-3.45-9.06-5.39-16.83-5.39h-41c-3.89-.22-14,.43-19.2,5.39a12.89,12.89,0,0,0-3.67,9.71V361.41c-.65,10.58-8,29.35-30.21,29.35H659.14c-10.79-.22-26.75-8-26.75-28.91,0-20.5-.22-218.78-.22-218.78,0-.43.22-9.49-5.39-15.1-3.24-3.46-8.2-5-14.67-5H475.57c-4.1.22-11.65,1.3-16.61,5.83-3.45,3.23-5.18,8-5.18,14.45-.21,16.4,0,116.94,0,197.85v78.75c0,17.7,0,27.62-.64,33.23h.43a48.18,48.18,0,0,1-2.59,15.1c-3.84,11.68-11.84,18.16-22.44,18.16H393.8A27.73,27.73,0,0,1,375,479.43c-7.33-6.47-11-16.61-11.22-30V398.31c0-12.3-6.69-15.32-12.51-15.54H290.89a14.65,14.65,0,0,0-15.14,14.14h0a14.23,14.23,0,0,0,0,1.6V534c1.73,12.94,3.46,14.46,12.09,20.71,8.19,5.83,14.67,6,24.81,6,16.4,0,70.12,0,89.75-.21h1.94c9.71-.22,25.68,2.37,31.94,7.12,17.69,13.16,17.69,38.62,17.47,68v47C453.57,736.18,453.57,794.22,453.78,832Z" transform="translate(5.24 4.5)"/><path class="cls-5" d="M473,430.67v-266S473,144,491.32,144H615.6" transform="translate(5.24 4.5)"/><path class="cls-7" d="M473,438.65a8,8,0,0,1-8-7.93V164.64c0-11.43,7.12-28.69,26.54-28.69h124.3a8,8,0,0,1,8,7.94h0a8.12,8.12,0,0,1-8,8H491.54c-9.49,0-10.4,9.73-10.4,12.75v266a8,8,0,0,1-8,8Z" transform="translate(5.24 4.5)"/><path class="cls-7" d="M615.6,351.92a8,8,0,0,1-8-7.94V209.74a8,8,0,0,1,16,0v134.2a7.82,7.82,0,0,1-7.64,8h0Z" transform="translate(5.24 4.5)"/><path class="cls-7" d="M796.4,452.25a8,8,0,0,1-8-7.94V280.48c0-3.66.22-10.14-1.08-11.43a5.2,5.2,0,0,0-3.23-.65h-33a8,8,0,0,1-8-7.94h0a8.12,8.12,0,0,1,8-8h33c6.25,0,11.22,1.72,14.67,5.39,6,6,5.82,14.89,5.82,22.87V444.24A8.15,8.15,0,0,1,796.4,452.25Z" transform="translate(5.24 4.5)"/><path class="cls-7" d="M473,821.84a8,8,0,0,1-8-7.94h0c0-1.73-.65-177.14-.43-217.92.22-15.75-3.45-27.62-10.79-34.74a26.18,26.18,0,0,0-16.4-7.76H318.29c-12.3,0-21.79-3.45-28.27-10.36a31.15,31.15,0,0,1-7.55-22V421.18a8,8,0,0,1,16,0V521.94a15.49,15.49,0,0,0,3.45,10.78q4.86,5.19,16.18,5.18h119A42.34,42.34,0,0,1,465,550.42c10.36,10.35,15.54,25.89,15.32,46.17-.22,40.56.43,216,.43,217.7a7.42,7.42,0,0,1-7.28,7.56H473Z" transform="translate(5.24 4.5)"/><path class="cls-7" d="M616,821.84H509.45a8,8,0,0,1-8-7.94h0a8.13,8.13,0,0,1,8-8H616a8,8,0,0,1,8,7.94h0A8.09,8.09,0,0,1,616,821.84Z" transform="translate(5.24 4.5)"/></svg>