<?xml version="1.0" encoding="utf-8"?>
<!-- Generator: Adobe Illustrator 17.1.0, SVG Export Plug-In . SVG Version: 6.00 Build 0)  -->
<!DOCTYPE svg PUBLIC "-//W3C//DTD SVG 1.1//EN" "http://www.w3.org/Graphics/SVG/1.1/DTD/svg11.dtd">
<svg version="1.1" id="Layer_1" xmlns="http://www.w3.org/2000/svg" xmlns:xlink="http://www.w3.org/1999/xlink" x="0px" y="0px"
	 viewBox="245 -106 310 382" enable-background="new 245 -106 310 382" xml:space="preserve">
<g>
	<g>
		<path d="M386.756,214.076h-10.011v10.851h10.551c3.789,0,5.818-2.022,5.818-5.661
			C393.114,215.694,390.273,214.076,386.756,214.076z M337.311,217.379l-5.479,16.848h10.957l-5.343-16.848H337.311z
			 M346.511,90.985c9.125,0,12.624-8.031,12.624-16.062s-3.498-16.063-12.624-16.063c-9.126,0-12.624,8.031-12.624,16.063
			S337.385,90.985,346.511,90.985z M297.614,74.619c0-9.85-5.324-14.623-14.981-14.623h-6.693v29.853h6.692
			C293.355,89.622,297.614,85.454,297.614,74.619z M376.76,138.373h-10.623v11.513h11.197c4.02,0,6.173-2.146,6.173-6.006
			C383.507,140.089,380.492,138.373,376.76,138.373z M400-106L245,42v234h310V42L400-106z M489.173,47.873h27.681
			c9.583,0,19.012,4.319,19.012,15.229c0,5.834-2.813,11.366-8.517,13.563v0.152c5.78,1.364,7.453,7.803,7.909,12.955
			c0.152,2.274,0.38,10.229,2.281,12.2h-13.992c-1.217-1.819-1.445-7.123-1.597-8.638c-0.38-5.455-1.293-11.062-7.909-11.062
			h-10.723v19.7h-14.145L489.173,47.873z M492.248,147.311v10.298h-25.122v9.725h28.209v11.443h-41.559v-51.061h40.841v10.656
			h-27.491v8.939H492.248z M434.8,47.873h43.271v11.29h-29.126v9.471h26.617v10.911h-26.617v10.304h29.885v12.123H434.8V47.873z
			 M443.081,147.311v10.298h-25.122v9.725h28.208v11.443h-41.559v-51.061h40.841v10.656h-27.491v8.939H443.081z M392.291,47.873
			l10.646,41.233l0.152-1l10.647-40.233h14.753l-17.567,54.099h-16.274l-17.11-54.099H392.291z M396.283,167.263
			c0.143,2.146,0.36,9.655,2.154,11.514H385.23c-1.148-1.716-1.363-6.723-1.507-8.152c-0.359-5.15-1.22-10.442-7.465-10.442h-10.121
			v18.594h-13.351v-51.061h26.127c9.043,0,17.945,4.076,17.945,14.374c0,5.507-2.655,10.728-8.039,12.802v0.143
			C394.272,156.322,395.851,162.401,396.283,167.263z M346.511,46.737c17.11,0,26.768,12.502,26.768,28.186
			c0,15.685-9.658,28.187-26.768,28.187c-17.111,0-26.769-12.502-26.769-28.187C319.742,59.239,329.4,46.737,346.511,46.737z
			 M302.973,139.159v-11.443h43.928v11.443h-15.289v39.619h-13.35v-39.619L302.973,139.159z M261.796,47.873h23.346
			c16.654,0,26.617,10.077,26.617,26.822c0,17.73-10.114,27.277-26.617,27.277h-23.346V47.873z M271.966,156.894
			c-7.322-2.074-15.001-5.384-15.001-14.752c0-11.156,11.269-15.498,20.887-15.498c10.192,0,20.456,4.934,20.528,16.448h-13.351
			c0.216-4.649-4.163-6.15-8.254-6.15c-2.871,0-6.46,1.001-6.46,4.362c0,3.933,7.393,4.649,14.858,6.723
			c7.393,2.073,14.857,5.507,14.857,14.732c0,12.943-11.054,17.091-22.322,17.091c-11.771,0-20.747-5.398-20.818-18.356l11.918,0.12
			c0.287,6.008,4.019,7.938,9.69,7.938c4.019,0,8.182-1.431,8.182-5.22C286.68,159.827,279.359,158.969,271.966,156.894z
			 M310.525,252.154h-11.838v-36.528h-0.135l-10.146,36.528h-9.605l-10.146-36.528h-0.135v36.528l-11.837-0.02v-48.119l18.534,0.02
			l8.32,32.079h0.135l8.32-32.079h18.533V252.154z M348.742,252.154l-2.977-8.626h-16.842l-3.044,8.626H312.96l18.06-48.119h12.784
			l18.06,48.119H348.742z M394.738,252.154c-1.083-1.617-1.286-6.335-1.42-7.682c-0.339-4.852-1.15-9.84-7.034-9.84h-9.538v17.522
			h-12.581v-48.119h24.62c8.523,0,16.91,3.841,16.91,13.546c0,5.188-2.502,10.108-7.575,12.063v0.135
			c5.141,1.212,6.629,6.941,7.034,11.523c0.135,2.022,0.339,9.099,2.03,10.851L394.738,252.154L394.738,252.154z M442.357,252.154
			l-12.987-20.218l-5.141,5.391v14.827h-12.581v-48.119h12.581v18.466l15.895-18.466h15.625l-17.857,18.937l20.089,29.182
			L442.357,252.154L442.357,252.154z M499.58,252.154h-39.165v-48.119h38.488v10.041h-25.906v8.425h23.675v9.705h-23.675v9.165
			h26.583V252.154z M499.641,127.716h43.927v11.443H528.28v39.619h-13.351v-39.619h-15.288V127.716z M543.683,214.817h-14.407
			v37.336h-12.582v-37.336h-14.407v-10.782h41.396V214.817L543.683,214.817z M521.721,64.997c0-4.016-3.195-5.834-7.149-5.834
			h-11.254v12.199h11.863C519.44,71.362,521.721,69.088,521.721,64.997z" style="fill: black;"/>
	</g>
</g>
</svg>
